<svg width="110" height="111" viewBox="0 0 110 111" fill="none" xmlns="http://www.w3.org/2000/svg">
<g clip-path="url(#clip0_32_2609)">
<circle cx="55.5" cy="55.5" r="55.5" fill="#114677"/>
<path d="M64.8815 19.1624C64.8815 19.1624 65.0985 13.3531 67.9641 8.38177C68.342 7.72618 69.2244 7.59979 69.7778 8.11273C71.6964 9.8909 75.5636 14.405 76.293 22.3975L64.8815 19.1624Z" fill="#466B8E"/>
<path d="M44.588 35.4189C44.588 35.4189 42.1579 44.4099 33.2892 50.552C32.8425 50.8612 32.9081 51.5445 33.4153 51.7359C33.7784 51.8732 34.2171 52.0026 34.7085 52.077C34.7085 52.077 27.8448 61.0465 15.9418 65.0956C14.9486 65.4336 14.7495 66.7446 15.5998 67.3631C17.11 68.4616 19.5908 69.8996 23.2001 70.9149C23.2001 70.9149 22.0836 72.638 19.4932 73.7649C18.2024 74.326 17.7863 75.9701 18.5814 77.1396C22.1521 82.3908 31.333 94.4302 45.2781 102.609C45.8866 102.966 46.6392 102.461 46.5584 101.756C46.4179 100.531 46.2344 98.8492 46.113 97.4242C46.0634 96.8395 46.732 96.4826 47.1797 96.8574C50.1127 99.3111 58.5348 105.171 72.7064 105.82C73.4951 105.856 74.2416 105.454 74.6696 104.784C76.705 101.597 82.494 91.8928 83.5639 83.0757L85.0803 82.5835C85.7302 82.3726 86.0419 81.627 85.7289 81.0148C84.9918 79.5731 83.4771 77.1671 81.0715 75.8446C81.0715 75.8446 84.4514 75.7705 86.7977 73.6675C87.5278 73.0128 87.3153 71.81 86.3915 71.4892C82.314 70.0744 72.4253 65.4659 72.0698 53.9692L44.588 35.4189Z" fill="url(#paint0_linear_32_2609)"/>
<path d="M86.3915 71.4892C82.3139 70.0744 72.4253 65.4659 72.0698 53.9692L49.1453 38.4953C50.5658 40.3528 52.7448 43.3756 54.934 47.082L48.264 44.666C48.0621 49.7382 51.6961 53.1755 51.6961 53.1755L58.337 53.5352C61.0472 59.4019 63.0337 66.0641 62.3962 72.3028C62.3962 72.3028 61.6127 80.6541 52.2803 77.7965L51.6594 78.3922C51.6594 78.3922 57.3796 83.3751 64.0763 84.0896C64.0763 84.0896 74.0279 102.502 59.7998 103.542C63.3914 104.698 67.6799 105.59 72.7064 105.82C73.495 105.856 74.2416 105.454 74.6696 104.784C76.7052 101.597 82.494 91.893 83.5637 83.0759L85.0803 82.5838C85.7302 82.3728 86.0421 81.6273 85.7289 81.015C84.9918 79.5731 83.4771 77.1673 81.0715 75.8449C81.0715 75.8449 84.4514 75.7707 86.7977 73.6678C87.528 73.0128 87.3153 71.8096 86.3915 71.4892Z" fill="#6086AD"/>
<path d="M60.8324 5.38048C63.3886 7.32623 68.51 11.8868 69.5464 17.8472C69.5464 17.8472 76.8015 19.9388 81.3173 25.8873C81.6374 26.309 81.8486 26.8063 81.9584 27.3257C82.6381 30.5378 85.7016 42.9965 93.0409 47.0428C93.9183 47.5264 94.5512 48.3553 94.7106 49.3514C95.1339 51.9938 95.3526 57.0915 91.5913 60.0469C91.0286 60.4889 90.2316 60.4638 89.6588 60.0348L86.2651 57.4941C86.2651 57.4941 81.9459 62.2743 75.9552 58.0565L66.9374 52.5733C65.6977 51.8184 64.3011 51.3647 62.8579 51.2482C60.8672 51.0882 57.8112 50.8877 54.8111 50.8692C53.3071 50.8596 51.8577 50.2993 50.7323 49.2925C48.0782 46.9205 43.8086 41.782 43.4975 33.091C43.4706 32.3433 44.3319 31.9082 44.9148 32.3704C45.4487 32.7938 46.049 33.2515 46.5575 33.5938C46.5575 33.5938 46.3033 26.6669 51.3803 22.2479C51.7702 21.9084 52.3658 21.9698 52.6689 22.3904L54.36 24.7365C54.36 24.7365 54.7256 17.8487 57.7371 11.6661C58.3002 10.5097 58.7024 9.28304 58.9486 8.01868C59.067 7.41121 59.1804 6.73936 59.2606 6.06881C59.3523 5.29983 60.2198 4.91415 60.8324 5.38048Z" fill="#88ABD6"/>
<path d="M60.1728 5.18817C59.7279 5.22156 59.3216 5.55629 59.2604 6.06858C59.1802 6.73914 59.0668 7.41099 58.9484 8.01845C58.7022 9.28281 58.3 10.5095 57.7369 11.6658C54.7254 17.8487 54.3598 24.7363 54.3598 24.7363C54.8672 26.8737 57.0062 27.9161 57.0062 27.9161C58.1155 20.5354 64.0761 18.7102 64.0761 18.7102C64.0189 9.91825 61.5074 6.4263 60.1728 5.18817Z" fill="#6086AD"/>
<path d="M94.9317 52.077C94.9286 51.1641 94.8547 50.2529 94.7109 49.3517C94.5514 48.3555 93.9185 47.5269 93.0411 47.043C92.6164 46.8069 92.2064 46.5448 91.8135 46.2582C91.5209 46.8158 91.3395 47.4417 91.3395 48.1166C91.3395 50.1967 92.9197 51.8862 94.9317 52.077Z" fill="#333345"/>
<path d="M73.9612 50.1059C73.9612 50.1059 74.2429 47.1574 77.8484 44.7751C78.3284 44.4579 78.9527 44.8787 78.8352 45.4454C78.4824 47.149 78.0254 50.0187 78.4113 52.077L73.9612 50.1059Z" fill="white"/>
<path d="M77.8815 52.077C77.8815 52.077 78.1352 53.6908 78.013 55.3077C77.9812 55.7293 78.4496 56.0079 78.8017 55.7786C79.4686 55.3437 80.3243 54.6677 80.7421 53.8519L77.8815 52.077Z" fill="white"/>
<path d="M72.0945 49.7339C72.0714 49.8137 72.0642 49.8973 72.0731 49.9799C72.0821 50.0625 72.1071 50.1425 72.1467 50.2154C72.1863 50.2883 72.2398 50.3525 72.3041 50.4045C72.3683 50.4565 72.4421 50.4953 72.5212 50.5185C74.4518 51.0852 80.6257 53.2213 85.1327 58.4381C85.8617 57.9394 86.2652 57.4943 86.2652 57.4943C86.2652 57.4943 80.7271 50.946 72.8282 49.2793C72.5059 49.2112 72.1847 49.4141 72.0945 49.7339Z" fill="#6086AD"/>
<path d="M36.9888 68.056C38.3178 70.5561 40.6544 73.8867 44.2286 75.5186C44.2286 75.5186 44.1169 72.8125 44.7723 70.3564C44.8742 69.9749 45.3883 69.9174 45.5782 70.2628C46.8763 72.6243 51.014 78.8048 59.968 81.6468C61.4193 82.1075 62.9881 81.4519 63.6745 80.0817C64.8892 77.6575 66.5457 73.4928 66.5519 68.7968C66.5526 68.3907 67.0557 68.206 67.3191 68.5128C67.8219 69.0981 68.4215 69.9313 68.6686 70.8021C68.6686 70.8021 69.72 68.0512 70.0805 64.4849C70.1031 64.2616 70.426 64.2549 70.4498 64.4786C70.6823 66.6813 70.7921 70.6565 69.3066 74.4521C69.1835 74.7671 68.75 74.7873 68.608 74.4805L67.9263 73.0091C67.9263 73.0091 68.1209 77.3854 64.7691 84.0955C64.0726 85.4897 62.4658 86.1635 61.0031 85.6549C57.3989 84.4025 50.7403 81.3658 46.4786 75.0551C46.4786 75.0551 46.1594 76.8898 46.1482 78.2597C46.1475 78.3171 46.1337 78.3735 46.108 78.4247C46.0822 78.4758 46.0452 78.5203 45.9997 78.5548C45.9542 78.5892 45.9015 78.6126 45.8457 78.6233C45.7898 78.6339 45.7323 78.6315 45.6775 78.6162C44.148 78.1852 39.3351 76.2292 36.5554 68.2583C36.4588 67.9805 36.8511 67.7969 36.9888 68.056Z" fill="#6086AD"/>
<path d="M73.3953 36.5654L73.3281 36.5105C71.966 35.4057 71.078 33.7951 70.8961 32.0413C70.8116 31.2293 70.7964 30.3106 70.9352 29.3662C70.9809 29.0547 71.3932 28.9723 71.5511 29.2439L72.3817 30.6709L75.9924 35.938L77.9702 36.6027C78.3238 36.8717 78.2106 37.4339 77.7814 37.5427C77.0253 37.7343 76.2353 37.7458 75.4741 37.5761C74.7129 37.4065 74.0012 37.0605 73.3953 36.5654Z" fill="#6086AD"/>
<path d="M73.1971 29.4295C74.351 30.3535 76.157 31.9001 77.0907 33.2206C77.2801 33.4847 77.3795 33.8036 77.3741 34.1295C77.3632 34.7142 77.3581 35.2991 77.3588 35.884C77.3605 36.5509 76.6518 36.9686 76.0728 36.6475C74.5252 35.7897 72.1497 33.8509 72.07 30.0088C72.0577 29.4111 72.7328 29.0579 73.1971 29.4295Z" fill="white"/>
</g>
<defs>
<linearGradient id="paint0_linear_32_2609" x1="46.7967" y1="87.6225" x2="66.8494" y2="13.8511" gradientUnits="userSpaceOnUse">
<stop offset="0.0051" stop-color="#88ABD6"/>
<stop offset="1" stop-color="#4F76A0"/>
</linearGradient>
<clipPath id="clip0_32_2609">
<rect width="110" height="111" fill="white"/>
</clipPath>
</defs>
</svg>
