<svg width="111" height="111" viewBox="0 0 111 111" fill="none" xmlns="http://www.w3.org/2000/svg">
<circle cx="55.5" cy="55.5" r="55.5" fill="#464D47"/>
<path d="M46.477 28.7483H32.2578C30.8181 28.7483 30.0695 30.5727 31.0441 31.7054C32.0491 32.8735 33.0845 34.3916 33.8362 36.2662C34.3956 37.6604 35.2687 38.9044 36.4774 39.6991C38.2732 40.8798 41.3047 42.0231 45.9852 41.3922L46.477 28.7483Z" fill="#BFC29F"/>
<path d="M46.3527 31.949H40.6975C40.0231 31.949 39.6423 32.8287 40.0517 33.4413C41.0208 34.8918 42.9288 36.9255 46.1457 37.2722L46.3527 31.949Z" fill="#9B9B6E"/>
<path d="M45.5101 46.5585C45.5101 46.5585 46.3348 56.3288 34.5927 61.5573C34.5927 61.5573 26.352 65.2432 23.227 72.2628C22.7388 73.3598 23.0581 74.6606 23.9912 75.4162C26.5495 77.4873 31.6856 82.4644 33.6623 90.3098C34.001 91.6546 34.6558 92.8973 35.5841 93.9272C38.6634 97.3443 46.4907 103.538 61.2114 100.732C65.6887 99.8786 69.857 97.7608 73.1277 94.5864C76.9252 90.9011 81.2685 84.9597 82.2725 76.5096C82.4141 75.3184 82.0131 74.128 81.205 73.2414C78.6335 70.4204 72.4229 64.0213 66.2745 60.8244L45.5101 46.5585Z" fill="url(#paint0_linear_32_2608)"/>
<path d="M41.7671 56.7491L41.0067 59.5852C53.7312 69.3455 59.0863 91.6308 60.8061 100.802C60.942 100.778 61.0741 100.758 61.2114 100.732C63.2476 100.344 65.2138 99.6813 67.0669 98.7898C62.5148 68.2668 41.7671 56.7491 41.7671 56.7491Z" fill="#9B9B6E"/>
<path d="M76.8423 71.2988L81.535 73.6579C81.4339 73.5123 81.3237 73.3732 81.2052 73.2414C79.8723 71.7815 78.4902 70.3674 77.0611 69.0016L77.0596 69.0003C76.303 68.2781 75.5316 67.5716 74.746 66.8812C72.178 64.6244 69.2213 62.3566 66.275 60.8244L45.5103 46.5585L45.5096 46.5602C44.5443 49.1759 46.009 53.247 48.1969 56.7491C49.7463 59.2291 53.2244 62.0259 55.9607 63.0575L73.9111 69.8253L70.8467 80.6329L73.1326 94.5818C74.998 92.7711 76.9929 90.4129 78.6604 87.4835C77.8467 83.8033 75.1149 79.9648 75.1149 79.9648C76.0628 76.7858 76.5699 73.6593 76.8423 71.2988Z" fill="#9B9B6E"/>
<path d="M79.0946 45.5845C79.1419 45.0586 79.1697 44.5275 79.1697 43.9892V24.568C79.1697 14.8654 71.3042 7 61.6016 7C51.8992 7 44.0336 14.8654 44.0336 24.568V43.9892C44.0336 53.6918 51.8992 61.5572 61.6016 61.5572H67.9397C74.9136 61.5572 80.5668 55.9038 80.5668 48.9301V47.8424C80.567 46.8333 79.961 45.9688 79.0946 45.5845Z" fill="url(#paint1_linear_32_2608)"/>
<path d="M54.3862 30.3308H60.5945C61.1759 30.3308 61.6025 30.8836 61.4432 31.4427C61.1679 32.4095 60.5282 33.7467 59.0543 34.3489C58.003 34.7785 56.7897 34.6897 55.7836 34.1634C54.9895 33.7479 54.0667 32.997 53.4876 31.6468C53.22 31.0231 53.7074 30.3308 54.3862 30.3308Z" fill="#FCFAFF"/>
<path d="M64.4445 38.8399C65.0356 38.8399 65.5148 38.3607 65.5148 37.7696C65.5148 37.1785 65.0356 36.6993 64.4445 36.6993C63.8534 36.6993 63.3742 37.1785 63.3742 37.7696C63.3742 38.3607 63.8534 38.8399 64.4445 38.8399Z" fill="#9B9B6E"/>
<path d="M68.0835 38.8399C68.6746 38.8399 69.1538 38.3607 69.1538 37.7696C69.1538 37.1785 68.6746 36.6993 68.0835 36.6993C67.4924 36.6993 67.0133 37.1785 67.0133 37.7696C67.0133 38.3607 67.4924 38.8399 68.0835 38.8399Z" fill="#9B9B6E"/>
<path d="M59.028 28.4044H54.3721C54.1734 28.4044 53.9828 28.3255 53.8423 28.185C53.7018 28.0444 53.6228 27.8539 53.6228 27.6551V16.6034C53.6228 16.4734 53.6484 16.3447 53.6981 16.2246C53.7478 16.1045 53.8207 15.9954 53.9126 15.9035C54.0046 15.8116 54.1137 15.7387 54.2338 15.6889C54.3538 15.6392 54.4826 15.6136 54.6125 15.6137C54.8175 15.6128 55.0176 15.676 55.1849 15.7945C55.3521 15.913 55.4782 16.0807 55.5454 16.2744C55.9699 17.5003 57.0522 20.141 58.9255 21.6698C59.4445 22.0933 59.7773 22.7018 59.7773 23.3716V27.6549C59.7773 27.7533 59.7579 27.8508 59.7203 27.9417C59.6826 28.0327 59.6275 28.1153 59.5579 28.1849C59.4883 28.2545 59.4057 28.3097 59.3148 28.3474C59.2239 28.385 59.1264 28.4044 59.028 28.4044Z" fill="#C9519C"/>
<path d="M54.8538 36.4852H57.8326C57.9685 36.4851 58.1031 36.5119 58.2287 36.5639C58.3543 36.6159 58.4684 36.6921 58.5645 36.7882C58.6606 36.8843 58.7369 36.9984 58.7889 37.124C58.8409 37.2496 58.8677 37.3842 58.8677 37.5201C58.8677 37.8375 58.7247 38.1341 58.4756 38.3306C57.7705 38.8863 56.3 40.1779 55.6296 41.7483C55.4937 42.0662 55.1742 42.265 54.8286 42.265C54.594 42.265 54.369 42.1718 54.2031 42.0059C54.0372 41.84 53.944 41.615 53.944 41.3804V37.3951C53.944 37.1538 54.0399 36.9224 54.2105 36.7518C54.3811 36.5811 54.6125 36.4852 54.8538 36.4852Z" fill="#C9519C"/>
<path d="M63.5261 27.0746L64.9994 28.538C65.0672 28.6053 65.1476 28.6586 65.2361 28.6947C65.3245 28.7308 65.4193 28.7491 65.5148 28.7484C65.6104 28.7478 65.7048 28.7282 65.7928 28.6909C65.8808 28.6536 65.9605 28.5993 66.0274 28.531L67.4643 27.0638C67.6992 26.8238 67.4845 26.4239 67.1546 26.4877L66.1077 26.847C65.7094 26.9837 65.2771 26.9845 64.8782 26.8495L63.8322 26.4953C63.5002 26.4311 63.2863 26.8362 63.5261 27.0746Z" fill="#9B9B6E"/>
<path d="M78.0417 30.0538H88.0613C89.0759 30.0538 89.6034 31.5067 88.9164 32.4086C88.0768 33.5105 87.4131 34.7358 86.9488 36.041C86.5548 37.1514 85.9395 38.1421 85.0876 38.7751C83.8222 39.7154 81.6863 40.626 78.388 40.1236L78.0417 30.0538Z" fill="#7F7D56"/>
<path d="M66.5989 61.5573H67.9399C74.9138 61.5573 80.567 55.9039 80.567 48.9302V47.8424C80.567 47.1687 80.2929 46.5633 79.8552 46.1184H74.0432C74.2693 49.5637 73.9914 57.9182 66.5989 61.5573Z" fill="#9B9B6E"/>
<path d="M79.8552 46.1182C79.6375 45.8967 79.3823 45.712 79.0945 45.5843C79.1419 45.0585 79.1696 44.5273 79.1696 43.9891V24.5681C79.1696 17.1476 74.5665 10.8061 68.0621 8.23145C70.1425 11.0823 73.0859 17.6318 73.0836 31.8655H69.1538C69.3208 35.0018 71.511 35.8523 73.0015 36.0692C72.8877 39.1091 72.6528 42.4451 72.2636 46.118H79.8552V46.1182Z" fill="#9B9B6E"/>
<path d="M75.3228 30.3308H69.1143C68.5329 30.3308 68.1065 30.8836 68.2655 31.4427C68.5411 32.4095 69.1806 33.7467 70.6547 34.3489C71.7058 34.7785 72.9191 34.6897 73.9254 34.1634C74.7193 33.7479 75.6421 32.997 76.2212 31.6468C76.489 31.0231 76.0018 30.3308 75.3228 30.3308Z" fill="#FCFAFF"/>
<path d="M58.0648 46.1182C58.0648 46.1182 58.2623 43.5078 59.7459 41.0412C60.1144 40.4282 60.9981 40.4097 61.3709 41.0202C62.0957 42.2084 63.0619 44.1529 63.0951 46.118H58.0648V46.1182Z" fill="#FCFAFF"/>
<path d="M71.2653 46.1182C71.2653 46.1182 71.463 43.5078 72.9466 41.0412C73.3152 40.4282 74.1989 40.4097 74.5716 41.0202C75.2963 42.2084 76.2626 44.1529 76.2958 46.118H71.2653V46.1182Z" fill="#FCFAFF"/>
<path d="M36.7313 60.2695C40.2042 63.1317 49.3313 71.5476 52.6502 83.3324L57.4449 79.1086C57.4449 79.1086 54.8645 67.5006 41.7671 56.749C40.9179 56.0519 39.7025 56.0111 38.8171 56.6617L36.7881 58.1525C36.0822 58.671 36.0555 59.7122 36.7313 60.2695Z" fill="#B77D85"/>
<path d="M71.7634 64.027C71.5819 66.649 70.8859 72.7878 68.2321 78.807L72.2639 81.6227C72.2639 81.6227 76.3003 73.7853 76.0539 67.0596C76.0247 66.2626 75.6297 65.5234 74.9887 65.049L72.9008 63.504C72.4467 63.1679 71.8026 63.4636 71.7634 64.027Z" fill="#B77D85"/>
<path d="M52.6502 83.332L57.4449 79.1084C57.4449 79.1084 57.1018 77.5775 56.045 75.1193C54.0818 76.3625 52.4135 77.9351 51.2143 79.2262C51.7627 80.5447 52.2505 81.9124 52.6502 83.332Z" fill="#9D5D65"/>
<path d="M69.6658 74.9971C69.2653 76.25 68.795 77.5302 68.2321 78.8068L72.2641 81.6225C72.2641 81.6225 73.0339 80.128 73.8806 77.8842C72.5428 76.3758 70.8549 75.4795 69.6658 74.9971Z" fill="#9D5D65"/>
<path d="M50.521 103.808C57.1967 104.394 71.3772 104.278 77.3217 93.8399C77.7595 93.0691 77.9306 92.1753 77.8085 91.2974C77.5476 89.3954 76.7645 85.7713 74.4294 82.1985C69.9264 75.3085 60.1161 74.673 54.3326 80.5298C50.8233 84.0834 47.0972 90.1068 46.8607 99.7589C46.8096 101.858 48.4304 103.624 50.521 103.808Z" fill="#C4D5FF"/>
<path d="M71.4771 87.1369L69.7184 88.4438C69.4986 88.607 69.1891 88.4351 69.2114 88.1625L69.5175 84.4328C69.5429 84.1253 69.3934 83.8203 69.1218 83.6739C66.6071 82.3154 63.4295 82.4242 60.9207 84.0687C54.0652 88.5624 54.2795 100.395 54.5155 103.997C60.8452 104.045 69.674 102.871 75.1149 96.875C74.7937 92.5433 73.8393 89.5102 72.6486 87.3859C72.5931 87.287 72.5172 87.2011 72.426 87.1339C72.3347 87.0667 72.2301 87.0197 72.1192 86.9962C72.0083 86.9726 71.8937 86.973 71.783 86.9972C71.6723 87.0215 71.568 87.0691 71.4771 87.1369Z" fill="#7E9AEF"/>
<path d="M54.6039 46.5585C54.6039 46.6864 54.6291 46.813 54.6781 46.9312C54.727 47.0494 54.7988 47.1568 54.8892 47.2472C54.9797 47.3376 55.0871 47.4094 55.2053 47.4583C55.3235 47.5072 55.4501 47.5324 55.578 47.5324H80.5441C80.4905 47.1104 80.329 46.7094 80.075 46.3682C79.8211 46.0269 79.4834 45.757 79.0945 45.5845H55.578C55.4501 45.5845 55.3235 45.6097 55.2053 45.6586C55.0871 45.7075 54.9797 45.7793 54.8892 45.8697C54.7988 45.9602 54.727 46.0675 54.6781 46.1857C54.6291 46.3039 54.6039 46.4305 54.6039 46.5585Z" fill="#9B9B6E"/>
<defs>
<linearGradient id="paint0_linear_32_2608" x1="51.2396" y1="55.2403" x2="56.8877" y2="132.996" gradientUnits="userSpaceOnUse">
<stop stop-color="#BFC29F"/>
<stop offset="1" stop-color="#9B9B6E"/>
</linearGradient>
<linearGradient id="paint1_linear_32_2608" x1="60.2937" y1="12.4301" x2="69.1426" y2="160.223" gradientUnits="userSpaceOnUse">
<stop stop-color="#BFC29F"/>
<stop offset="1" stop-color="#9B9B6E"/>
</linearGradient>
</defs>
</svg>
