<svg width="111" height="111" viewBox="0 0 111 111" fill="none" xmlns="http://www.w3.org/2000/svg">
<circle cx="55.5" cy="55.5" r="55.5" fill="#155054"/>
<path d="M61.3692 12.5011C62.0155 12.5011 62.5394 11.9772 62.5394 11.3309C62.5394 10.6846 62.0155 10.1607 61.3692 10.1607C60.7229 10.1607 60.199 10.6846 60.199 11.3309C60.199 11.9772 60.7229 12.5011 61.3692 12.5011Z" fill="#C7DAFF"/>
<path d="M72.9689 30.7766C72.9689 30.7766 75.1586 31.3234 75.9604 33.9718C76.5207 35.8227 76.1472 37.8828 74.7365 39.2056C74.1163 39.7875 73.2608 40.2687 72.0973 40.3724L72.9689 30.7766Z" fill="#A06260"/>
<path d="M45.6836 57.1493C45.6836 57.1493 35.191 59.2654 26.5659 69.925C25.6651 71.0385 25.8579 72.6864 27.0146 73.5308C29.2247 75.1436 32.7668 78.7407 36.1935 86.5288C36.1935 86.5288 40.5609 97.7093 56.527 98.9462C59.3477 99.1647 62.1985 98.7225 64.7656 97.5325C69.7573 95.2183 77.297 89.645 78.2877 76.9096C78.5015 74.1596 78.0689 71.3828 76.8817 68.8928C74.1777 63.2221 66.6469 55.4462 45.6836 57.1493Z" fill="#F9C8B2"/>
<path d="M78.2876 76.9096C78.5015 74.1596 78.0687 71.3828 76.8815 68.8928C74.4921 63.8815 68.3257 57.2311 52.4584 56.9263L51.0987 60.2792L49.3808 68.0127C49.3808 68.0127 52.1699 77.9552 64.4512 78.8294C64.4512 78.8294 71.788 79.6072 67.6011 95.9758C72.2183 93.022 77.4722 87.3941 78.2876 76.9096Z" fill="#DDA288"/>
<path d="M61.0151 90.0272C62.0961 90.0272 62.9724 89.1509 62.9724 88.0699C62.9724 86.9889 62.0961 86.1126 61.0151 86.1126C59.9341 86.1126 59.0578 86.9889 59.0578 88.0699C59.0578 89.1509 59.9341 90.0272 61.0151 90.0272Z" fill="#D39671"/>
<path d="M46.6716 29.2405C46.6716 29.2405 37.748 35.1778 34.176 43.2395C32.9463 46.0147 32.8566 49.2107 34.1887 51.9382C35.5242 54.6728 38.3981 57.6247 44.5507 58.4949L46.6716 29.2405Z" fill="#773E41"/>
<path d="M71.1755 47.3358H72.244C74.1669 47.3358 75.7256 45.777 75.7256 43.854C75.7256 41.9312 74.1669 40.3723 72.244 40.3723H71.1755V47.3358Z" fill="#C66760"/>
<path d="M47.3089 26.9085V19.6418C38.4321 19.4944 35.6421 13.4932 34.7897 10.3611C34.6576 9.87532 33.9708 9.88166 33.8409 10.3681C32.5502 15.2016 30.7843 27.691 47.3089 26.9085Z" fill="#EEF6FF"/>
<path d="M72.0973 26.0683V19.6177C79.9772 19.4868 82.454 14.1596 83.2108 11.3792C83.3279 10.948 83.9377 10.9536 84.053 11.3853C85.1987 15.6763 86.7663 26.7629 72.0973 26.0683Z" fill="#819FEA"/>
<path d="M47.3089 26.9084V19.6417C45.8963 19.6183 44.6537 19.4336 43.5327 19.1489C42.8547 21.1535 41.0862 23.6825 36.5099 24.312C38.6698 26.0668 42.0668 27.1566 47.3089 26.9084Z" fill="#C7DAFF"/>
<path d="M73.4503 30.7766L72.9689 56.1332H43.6005L44.0938 31.0144L73.4503 30.7766Z" fill="url(#paint0_linear_32_2604)"/>
<path d="M30.4743 66.2825C32.6348 66.4854 35.5803 67.0933 38.2608 68.7685C41.8465 71.009 45.8422 72.4997 50.0543 72.8685C57.6539 73.5339 68.7788 73.3049 76.8677 67.9935C77.7799 67.3943 78.0073 66.153 77.3846 65.2564C75.1155 61.9901 68.1202 55.1107 49.4192 55.0316C49.4192 55.0316 37.9658 55.6189 29.5962 63.7202C28.676 64.6109 29.1995 66.1628 30.4743 66.2825Z" fill="#BC7D5C"/>
<path d="M43.7742 47.3358H42.7061C40.7832 47.3358 39.2243 45.777 39.2243 43.854C39.2243 41.9312 40.7831 40.3723 42.7061 40.3723H43.7742V47.3358Z" fill="#E8897B"/>
<path d="M43.8721 30.7766L43.5626 59.6602C43.4485 70.299 52.0413 78.9842 62.6806 78.9842C68.3626 78.9842 72.9687 74.3782 72.9687 68.6962V50.4901L56.1822 50.5762L51.4918 53.1764C51.4918 53.1764 45.1636 50.7483 45.1636 40.9345V30.7764H43.8721V30.7766Z" fill="url(#paint1_linear_32_2604)"/>
<path d="M67.3618 36.5893V56.1332H72.9689L73.4503 30.7766L59.209 30.892C60.4904 31.0422 62.5414 31.3713 64.2713 32.0544C66.1347 32.79 67.3618 34.5859 67.3618 36.5893Z" fill="#E8897B"/>
<path d="M67.3272 58.4949V67.4352C67.3272 69.9551 66.8322 72.4654 65.7545 74.7434C65.0655 76.1996 64.0788 77.719 62.6932 78.9838C68.3694 78.9771 72.9689 74.3741 72.9689 68.6963V50.4901L70.3308 50.5036L61.7549 51.6131C61.755 51.6131 67.0434 51.7611 67.3272 58.4949Z" fill="#773E41"/>
<path d="M43.7742 42.4652C43.7742 42.4652 44.9683 38.0843 49.1735 36.7937C51.6318 36.0392 53.5829 33.9142 53.3325 31.0163H43.8723L43.7742 42.4652Z" fill="#773E41"/>
<path d="M59.3844 39.0976C60.1779 39.0976 60.8211 38.4543 60.8211 37.6608C60.8211 36.8674 60.1779 36.2241 59.3844 36.2241C58.5909 36.2241 57.9476 36.8674 57.9476 37.6608C57.9476 38.4543 58.5909 39.0976 59.3844 39.0976Z" fill="#333345"/>
<path d="M70.2253 39.0976C71.0188 39.0976 71.662 38.4543 71.662 37.6608C71.662 36.8674 71.0188 36.2241 70.2253 36.2241C69.4318 36.2241 68.7886 36.8674 68.7886 37.6608C68.7886 38.4543 69.4318 39.0976 70.2253 39.0976Z" fill="#333345"/>
<path d="M76.6084 51.3754C75.4915 51.0407 74.1627 50.3109 73.2801 48.7328C72.2145 46.8272 70.3634 45.56 68.3106 45.1361C67.1459 44.8955 61.7569 44.8955 60.5923 45.1361C58.5394 45.5602 56.6882 46.8274 55.6227 48.7328C54.74 50.3109 53.4112 51.0407 52.2945 51.3754C51.301 51.6732 51.0677 53.0662 51.8936 53.722C53.5735 55.0561 55.6776 55.1419 57.1959 54.962C58.229 54.8396 59.1898 54.2922 59.8124 53.4107C61.5929 50.8904 67.3103 50.8904 69.0906 53.4107C69.7134 54.2922 70.6739 54.8396 71.7073 54.962C73.2257 55.1417 75.3298 55.0561 77.0097 53.722C77.8352 53.066 77.6018 51.673 76.6084 51.3754Z" fill="#BC8285"/>
<path d="M57.9665 26.3386V12.9455C57.9665 12.9455 45.5422 12.6643 44.2314 25.8274L57.9665 26.3386Z" fill="#EEF6FF"/>
<path d="M65.2185 12.9449C65.2185 12.9449 76.0899 15.168 75.178 25.5975H65.2185V12.9449Z" fill="#C7DAFF"/>
<path d="M46.6716 25.9181L57.9665 26.3384V16.544C57.1027 19.9997 54.445 24.5026 46.6716 25.9181Z" fill="#C7DAFF"/>
<path d="M65.2185 25.8274H57.5199V12.6242C57.5199 12.4544 57.5534 12.2862 57.6184 12.1293C57.6834 11.9724 57.7786 11.8298 57.8987 11.7097C58.0188 11.5897 58.1614 11.4944 58.3183 11.4294C58.4752 11.3645 58.6434 11.331 58.8132 11.3311H63.9254C64.2683 11.3311 64.5972 11.4673 64.8397 11.7098C65.0822 11.9523 65.2185 12.2812 65.2185 12.6242V25.8274Z" fill="#EEF6FF"/>
<path d="M75.1519 31.6911H44.5707C44.1171 31.6911 43.6821 31.511 43.3613 31.1902C43.0406 30.8695 42.8604 30.4344 42.8604 29.9808V26.8046C42.8604 25.8601 43.6262 25.0942 44.5707 25.0942H75.1519C75.6055 25.0942 76.0406 25.2744 76.3613 25.5952C76.6821 25.9159 76.8623 26.351 76.8623 26.8046V29.9808C76.8623 30.4344 76.6821 30.8695 76.3613 31.1902C76.0406 31.511 75.6055 31.6911 75.1519 31.6911Z" fill="#C7DAFF"/>
<path d="M76.8623 26.8048C76.8623 25.8603 76.0964 25.0944 75.1519 25.0944H68.0461C67.8116 26.7536 66.3299 31.2141 60.0445 31.6911H75.1519C75.6055 31.6911 76.0406 31.511 76.3613 31.1902C76.6821 30.8695 76.8623 30.4344 76.8623 29.9808V26.8048Z" fill="#819FEA"/>
<path d="M76.6084 51.3755C75.4915 51.0408 74.1627 50.311 73.2801 48.7328C72.6373 47.5835 71.7057 46.6713 70.6195 46.0314C70.6813 49.507 68.4406 51.0536 66.2761 51.735C67.457 52.0142 68.4952 52.5683 69.0903 53.4107C69.7133 54.2923 70.6735 54.8396 71.707 54.962C73.2253 55.1417 75.3294 55.0561 77.0093 53.722C77.8352 53.066 77.6018 51.673 76.6084 51.3755Z" fill="#9E6369"/>
<path d="M64.9081 43.854C65.2916 43.854 65.6025 43.5431 65.6025 43.1596C65.6025 42.7761 65.2916 42.4651 64.9081 42.4651C64.5246 42.4651 64.2137 42.7761 64.2137 43.1596C64.2137 43.5431 64.5246 43.854 64.9081 43.854Z" fill="#E8897B"/>
<path d="M61.3692 22.6115C62.0155 22.6115 62.5394 22.0876 62.5394 21.4413C62.5394 20.795 62.0155 20.2711 61.3692 20.2711C60.7229 20.2711 60.199 20.795 60.199 21.4413C60.199 22.0876 60.7229 22.6115 61.3692 22.6115Z" fill="#C7DAFF"/>
<path d="M61.3692 17.2544C62.0155 17.2544 62.5394 16.7305 62.5394 16.0842C62.5394 15.4379 62.0155 14.914 61.3692 14.914C60.7229 14.914 60.199 15.4379 60.199 16.0842C60.199 16.7305 60.7229 17.2544 61.3692 17.2544Z" fill="#C7DAFF"/>
<defs>
<linearGradient id="paint0_linear_32_2604" x1="58.5255" y1="34.4061" x2="58.5255" y2="67.372" gradientUnits="userSpaceOnUse">
<stop offset="0.0051" stop-color="#FFC3B0"/>
<stop offset="1" stop-color="#E8897B"/>
</linearGradient>
<linearGradient id="paint1_linear_32_2604" x1="58.2652" y1="70.1222" x2="58.2652" y2="33.2773" gradientUnits="userSpaceOnUse">
<stop stop-color="#A06260"/>
<stop offset="1" stop-color="#82494C"/>
</linearGradient>
</defs>
</svg>
