<svg width="111" height="111" viewBox="0 0 111 111" fill="none" xmlns="http://www.w3.org/2000/svg">
<circle cx="55.5" cy="55.5" r="55.5" fill="#822626"/>
<path d="M54.5964 59.2234H48.018C48.018 59.2234 41.5677 66.5952 32.6684 71.3826C31.1987 72.1732 30.5919 73.9598 31.2878 75.4768C32.5716 78.2751 33.8223 82.1757 35.0522 87.7348C35.0522 87.7348 38.259 104.717 61.1749 102.858C61.1749 102.858 79.0056 102.275 78.6031 75.6497C78.5807 74.1521 77.6504 72.8201 76.2644 72.253C71.8872 70.4619 62.4022 65.9188 59.5617 59.2236H54.5964V59.2234Z" fill="url(#paint0_linear_32_2605)"/>
<path d="M76.2642 72.2528C71.887 70.4617 62.402 65.9186 59.5615 59.2234H56.2407L59.2549 69.9654C72.1559 82.3315 70.8072 93.753 67.8836 100.688C72.8929 97.8171 78.8373 91.151 78.6029 75.6495C78.5805 74.1519 77.6502 72.8199 76.2642 72.2528Z" fill="#DDA288"/>
<path d="M62.184 88.0481L60.4969 86.4949L62.0504 84.8076C62.1551 84.6938 62.2364 84.5605 62.2897 84.4153C62.3429 84.2701 62.367 84.1159 62.3606 83.9613C62.3542 83.8068 62.3174 83.6551 62.2524 83.5148C62.1873 83.3745 62.0953 83.2484 61.9815 83.1437C61.8677 83.0389 61.7344 82.9576 61.5893 82.9043C61.4441 82.8511 61.2898 82.827 61.1353 82.8333C60.9808 82.8397 60.829 82.8765 60.6887 82.9415C60.5484 83.0065 60.4223 83.0986 60.3176 83.2124L58.7641 84.8995L57.077 83.3462C56.9632 83.2415 56.8299 83.1602 56.6847 83.1069C56.5395 83.0537 56.3853 83.0296 56.2308 83.036C56.0763 83.0424 55.9245 83.0792 55.7842 83.1442C55.6439 83.2093 55.5178 83.3013 55.4131 83.4151C55.2016 83.6449 55.09 83.9493 55.1028 84.2613C55.1157 84.5734 55.252 84.8675 55.4818 85.079L57.1691 86.6323L55.6157 88.3194C55.5109 88.4332 55.4296 88.5665 55.3763 88.7117C55.3231 88.8569 55.299 89.0112 55.3054 89.1657C55.3118 89.3203 55.3486 89.472 55.4136 89.6123C55.4787 89.7527 55.5707 89.8788 55.6845 89.9835C55.9143 90.1951 56.2187 90.3066 56.5307 90.2938C56.8428 90.2809 57.1369 90.1446 57.3485 89.9148L58.9019 88.2275L60.589 89.7809C60.8199 89.9857 61.1219 90.0916 61.4301 90.076C61.7383 90.0603 62.028 89.9244 62.237 89.6974C62.446 89.4703 62.5575 89.1704 62.5476 88.8619C62.5377 88.5535 62.4072 88.2613 62.184 88.0481Z" fill="#D38D78"/>
<path d="M48.018 47.6953V62.4466C48.018 62.4466 48.018 67.5371 53.4617 69.6908C54.6389 70.1566 55.5497 71.1178 55.8602 72.3453L57.3715 78.3224C57.4974 78.8196 58.2229 78.7556 58.2598 78.2441L58.7311 71.6757C58.7869 70.8977 59.0565 70.142 59.5475 69.5357C60.2887 68.6208 61.3191 66.7916 61.1581 63.8102V55.009L48.018 47.6953Z" fill="url(#paint1_linear_32_2605)"/>
<path d="M60.0966 68.734C60.1326 68.6733 60.1667 68.6073 60.2018 68.5427C60.26 68.4363 60.3168 68.3273 60.3728 68.2102C60.4091 68.1344 60.4432 68.056 60.4784 67.976C60.5311 67.8556 60.581 67.7301 60.63 67.5989C60.663 67.5109 60.695 67.4225 60.7258 67.3294C60.7723 67.1895 60.8142 67.042 60.8552 66.8915C60.8816 66.7947 60.9083 66.7004 60.9321 66.5989C60.9721 66.4201 61.0065 66.24 61.0353 66.0589C61.051 65.9659 61.0701 65.8782 61.0832 65.7818C61.1222 65.4938 61.1521 65.1936 61.1653 64.8747C61.1798 64.52 61.1773 64.1647 61.1579 63.8102V55.009L48.018 47.6953V49.0007C48.7278 49.8442 49.7356 51.0108 50.8316 52.2674C53.5627 55.399 55.7366 58.9759 57.2585 62.8424C58.4165 65.7844 55.5073 67.8263 52.4412 67.0544C50.0213 66.4454 49.0935 64.2723 48.0307 62.6915C48.1111 63.7268 48.7272 67.8191 53.4644 69.692C54.6407 70.157 55.5501 71.119 55.8598 72.3453L57.3713 78.3224C57.4972 78.8196 58.2228 78.7556 58.2594 78.2441L58.7309 71.6757C58.7745 71.0717 58.9503 70.4833 59.2549 69.9656C59.3426 69.8165 59.4376 69.6713 59.5473 69.5357C59.6414 69.4184 59.7315 69.2978 59.8172 69.1742C59.8461 69.1327 59.8748 69.0847 59.9038 69.0407C59.971 68.9403 60.0353 68.838 60.0966 68.734Z" fill="#E8897B"/>
<path d="M71.8544 21.1876V32.2968C71.8544 32.2968 74.7874 30.713 75.7568 27.1213C76.4882 24.4114 74.7248 21.5808 71.944 21.1991L71.8544 21.1876Z" fill="#353547"/>
<path d="M71.8544 37.8134V46.3727C73.6647 46.3727 75.1325 44.7106 75.1325 42.6605V41.526C75.1325 39.4757 73.6647 37.8134 71.8544 37.8134Z" fill="#E8897B"/>
<path d="M72.4007 19.6931L71.8544 52.1096C71.8544 52.1096 71.7777 58.5367 65.9437 58.626C64.964 58.6411 63.9994 58.4211 63.0849 58.0698C60.2926 56.9973 52.9092 53.9001 48.1699 49.4982C47.2548 48.6483 46.7226 47.465 46.7226 46.216V19.6931H72.4007Z" fill="url(#paint2_linear_32_2605)"/>
<path d="M58.833 29.0719C58.833 29.0719 61.6216 30.1176 64.0267 28.061C64.9693 27.255 66.2714 26.9523 67.3984 27.4701C68.3447 27.9045 69.2136 28.7212 69.2136 30.2556V50.6635C69.2136 51.7571 69.0656 52.8519 68.706 53.8849C67.9776 55.9766 66.2302 58.5931 62.0923 57.6772C62.4615 57.8265 62.8019 57.9613 63.0845 58.0698C63.9992 58.4211 64.9638 58.6411 65.9433 58.626C71.7775 58.5367 71.854 52.1096 71.854 52.1096L72.4003 19.6931H59.2317L58.833 29.0719Z" fill="#E8897B"/>
<path d="M41.6376 17.1434C41.6376 17.1434 36.9603 18.5696 35.4421 23.8831C34.9509 25.6026 34.9478 27.4137 35.2981 29.1654C35.9392 32.3704 38.2815 39.3693 42.2947 43.4588L46.7224 37.8132C46.7224 37.8132 48.2979 35.4137 49.9095 33.6026C50.4469 32.9984 50.9145 32.3414 51.2071 31.5957C51.6834 30.3816 52.1198 28.5401 51.5865 26.5222C51.5865 26.5222 54.8707 29.6392 60.443 29.7713C62.2525 29.8145 63.4362 27.8369 62.4143 26.3875C62.4032 26.3715 62.3919 26.3557 62.3804 26.3399C62.3804 26.3399 61.4436 25.2174 60.7945 23.6278C60.5436 23.0131 61.1427 22.3919 61.7853 22.6124C65.4646 23.8741 75.045 26.3918 78.8334 20.0137C79.3073 19.2159 78.7678 18.1964 77.8291 18.0623C77.1562 17.9663 76.41 17.8198 75.8021 17.5987C75.8021 17.5987 80.8312 16.1941 81.3461 9.52171C81.4237 8.5147 80.3461 7.80785 79.4074 8.24422C77.6028 9.08359 74.6858 9.96218 71.3101 9.16262C70.624 9.00006 69.9704 8.74148 69.3314 8.44933C67.0727 7.41656 59.2321 4.36665 50.4598 7.12695C50.4602 7.12695 42.7638 9.49439 41.6376 17.1434Z" fill="#353547"/>
<path d="M45.414 46.3727H46.7224V37.8134H45.414C43.2197 37.8134 41.4411 39.5922 41.4411 41.7863V42.3997C41.4409 44.5941 43.2197 46.3727 45.414 46.3727Z" fill="#E8897B"/>
<path d="M65.9422 46.3727C65.547 46.3727 65.168 46.2157 64.8886 45.9363C64.6091 45.6568 64.4521 45.2779 64.4521 44.8827V42.7785C64.4521 42.3833 64.6091 42.0044 64.8885 41.725C65.1679 41.4455 65.5469 41.2886 65.9421 41.2886C66.3372 41.2886 66.7162 41.4455 66.9956 41.725C67.275 42.0044 67.432 42.3833 67.432 42.7785V44.8827C67.432 45.0783 67.3935 45.2721 67.3186 45.4529C67.2438 45.6336 67.134 45.7979 66.9957 45.9363C66.8573 46.0746 66.6931 46.1844 66.5123 46.2593C66.3316 46.3342 66.1378 46.3727 65.9422 46.3727Z" fill="#E8897B"/>
<path d="M60.2615 38.7438C61.0505 38.7438 61.6901 38.1042 61.6901 37.3153C61.6901 36.5263 61.0505 35.8867 60.2615 35.8867C59.4726 35.8867 58.833 36.5263 58.833 37.3153C58.833 38.1042 59.4726 38.7438 60.2615 38.7438Z" fill="#333345"/>
<path d="M68.8605 38.7438C69.6495 38.7438 70.2891 38.1042 70.2891 37.3153C70.2891 36.5263 69.6495 35.8867 68.8605 35.8867C68.0716 35.8867 67.432 36.5263 67.432 37.3153C67.432 38.1042 68.0716 38.7438 68.8605 38.7438Z" fill="#333345"/>
<defs>
<linearGradient id="paint0_linear_32_2605" x1="54.1848" y1="71.735" x2="68.225" y2="143.971" gradientUnits="userSpaceOnUse">
<stop stop-color="#F9C8B2"/>
<stop offset="1" stop-color="#DDA288"/>
</linearGradient>
<linearGradient id="paint1_linear_32_2605" x1="54.5965" y1="72.1766" x2="54.5965" y2="27.141" gradientUnits="userSpaceOnUse">
<stop offset="0.0051" stop-color="#FFC3B0"/>
<stop offset="1" stop-color="#E8897B"/>
</linearGradient>
<linearGradient id="paint2_linear_32_2605" x1="59.5614" y1="53.2515" x2="59.5614" y2="3.27548" gradientUnits="userSpaceOnUse">
<stop offset="0.0051" stop-color="#FFC3B0"/>
<stop offset="1" stop-color="#E8897B"/>
</linearGradient>
</defs>
</svg>
