<svg width="111" height="111" viewBox="0 0 111 111" fill="none" xmlns="http://www.w3.org/2000/svg">
<circle cx="55.5" cy="55.5" r="55.5" fill="#114677"/>
<path d="M73.634 68.2111C73.6422 67.8014 73.6135 67.3913 73.5163 66.9936C72.2276 61.71 66.6518 56.652 53.549 54.2822C44.5544 52.6556 40.5636 49.1922 38.8933 47.0363C38.1671 46.099 37.7924 44.9391 37.7923 43.7532C37.7923 41.8238 38.8094 40.0306 40.4786 39.0628C44.4072 36.7847 48.5071 34.0106 50.7254 32.471C51.6423 31.8344 52.2881 30.841 52.3799 29.7284C52.5562 27.5926 50.875 25.8046 48.776 25.8046H34.9014L33.4674 21.9441C33.2504 21.36 32.4859 21.2264 32.0787 21.698C29.4179 24.7788 28.8299 29.1296 28.8299 29.1296C28.8299 29.1296 21.8913 35.6345 20.5902 53.5596C19.3947 70.0317 31.6482 72.324 32.6592 72.485C32.4632 76.4658 32.3461 89.0924 38.077 96.5946C38.3099 96.8996 38.6786 97.0709 39.0625 97.0709H42.4444C43.4245 97.0709 44.0175 95.9968 43.4994 95.1649C42.2265 93.1208 40.5146 89.44 40.2533 84.1544C39.891 76.8229 42.239 75.3113 44.5639 74.1561C47.8516 74.6897 51.1359 75.2447 54.4164 75.8211C57.0197 76.4287 60.5608 76.9841 62.9755 77.3309C64.5555 77.5578 65.7822 78.8253 65.9467 80.4129C66.6094 86.8103 67.704 93.5765 68.123 96.0719C68.1701 96.3517 68.3149 96.6056 68.5318 96.7886C68.7487 96.9715 69.0235 97.0715 69.3072 97.0708H71.3978C72.1128 97.0708 72.6776 96.4496 72.5911 95.7397C71.6068 87.6673 72.7749 78.7123 72.7749 78.7123C73.4604 73.9138 73.6042 69.7471 73.634 68.2111Z" fill="#E6F0FF"/>
<path d="M29.2479 27.2546C29.2479 27.2546 20.1473 30.1789 18.5598 39.8087C18.5598 39.8087 17.5017 47.5337 22.1579 50.0734L30.2002 29.015L29.2479 27.2546V27.2546Z" fill="#FFD9BE"/>
<path d="M29.248 27.2546C29.248 27.2546 28.0757 27.6336 26.5016 28.5598C27.0585 37.2412 22.7003 42.2858 18.4996 42.8949C18.6703 45.3431 19.4401 48.5909 22.1579 50.0734L30.2002 29.015L29.248 27.2546V27.2546Z" fill="#FFBF76"/>
<path d="M37.1714 81.5583C36.4079 76.8146 35.4428 72.3557 34.3274 70.4968L27.8723 69.0153C27.8723 69.0153 31.6326 81.7665 31.3301 95.1556C31.3064 96.2075 32.156 97.0708 33.2081 97.0708H35.3827C36.078 97.0708 36.6484 96.5258 36.674 95.831C36.7802 92.945 36.977 87.2521 37.1714 81.5583Z" fill="#819FEA"/>
<path d="M56.1266 75.3646C56.1266 75.3646 59.8081 84.1446 59.3559 95.954C59.3327 96.5619 59.8106 97.0708 60.4189 97.0708H62.7891C63.0698 97.0714 63.3394 96.9608 63.5389 96.7633C63.7384 96.5657 63.8516 96.2973 63.8538 96.0166C63.8798 92.7575 64.1063 82.7483 65.862 77.4813L56.1266 75.3646Z" fill="#819FEA"/>
<path d="M67.2378 60.6556C67.2378 60.6556 70.6242 57.0576 75.2803 57.0576H75.2936C79.568 57.0576 83.1049 60.3827 83.3686 64.6491L83.9307 73.7441C84.0054 74.9522 85.0068 75.8939 86.2172 75.8939H86.2174C86.7448 75.8938 87.2561 75.7118 87.6648 75.3786C88.0736 75.0454 88.3549 74.5813 88.4613 74.0647L88.4709 74.0184C88.5682 73.5458 88.8371 73.1261 89.2258 72.8403C89.6146 72.5545 90.0954 72.4229 90.5755 72.4709H90.5756C91.0037 72.5132 91.4057 72.6959 91.719 72.9905C92.0323 73.2852 92.2393 73.6753 92.3077 74.0999C92.8547 77.4941 93.205 85.5238 84.2753 85.5238C84.2753 85.5238 73.6932 85.6297 72.635 71.2909L67.2378 60.6556V60.6556Z" fill="#FFD9BE"/>
<path d="M37.0767 40.0332C37.1606 39.7184 37.6166 39.7232 37.6925 40.0401C38.0591 41.5725 39.2341 43.4911 42.2639 44.4648C48.3223 46.4121 54.2217 47.851 54.1159 55.576C54.1159 55.576 33.1865 54.6158 37.0767 40.0332V40.0332Z" fill="#FFBF76"/>
<path d="M33.4672 25.2053L44.5172 14.0752C44.8873 13.7022 45.5027 14.1053 45.3088 14.5937L40.4651 26.7925H31.9995L33.4672 25.2053V25.2053Z" fill="#C7DAFF"/>
<path d="M42.357 22.0274L43.1079 20.1363L41.4134 17.2013L40.2483 18.3749L42.357 22.0274Z" fill="#819FEA"/>
<path d="M38.9487 26.7926H40.4651L40.5979 26.4576L37.5188 21.1243L36.3537 22.2979L38.9487 26.7926Z" fill="#819FEA"/>
<path d="M38.2428 31.2371C38.8858 31.2371 39.4069 30.716 39.4069 30.073C39.4069 29.4301 38.8858 28.9089 38.2428 28.9089C37.5999 28.9089 37.0787 29.4301 37.0787 30.073C37.0787 30.716 37.5999 31.2371 38.2428 31.2371Z" fill="#819FEA"/>
<path d="M48.3271 74.7763C50.3583 75.1162 52.3881 75.4645 54.4164 75.821C57.0197 76.4286 60.5608 76.9839 62.9755 77.3307C64.5555 77.5577 65.7822 78.8252 65.9467 80.4128C66.6094 86.8102 67.704 93.5764 68.123 96.0718C68.1701 96.3515 68.315 96.6055 68.5318 96.7884C68.7487 96.9714 69.0235 97.0714 69.3072 97.0707L71.3978 97.0708C72.1128 97.0708 72.6776 96.4493 72.5911 95.7396C71.6068 87.6672 72.7749 78.7122 72.7749 78.7122C73.4604 73.9137 73.6042 69.7472 73.6342 68.2112C73.6423 67.8015 73.6136 67.3914 73.5165 66.9936C72.871 64.3472 71.1496 61.7577 67.9462 59.5339C68.1735 65.4211 65.8238 74.2527 48.3271 74.7763V74.7763Z" fill="#C7DAFF"/>
<path d="M44.5639 74.156C44.5639 74.156 39.4611 73.0668 38.2429 78.999C38.2429 78.999 36.6468 88.965 41.4033 94.8972C41.4033 94.8972 42.1267 96.0108 41.4267 97.071H42.4444C43.4246 97.071 44.0176 95.9969 43.4994 95.165C42.2266 93.1208 40.5146 89.4401 40.2533 84.1545C39.8911 76.8227 42.2391 75.3112 44.5639 74.156V74.156Z" fill="#C7DAFF"/>
<path d="M92.3075 74.0997C92.1177 72.9237 90.897 72.1227 89.617 72.6023C89.0293 72.8226 88.6085 73.351 88.4816 73.9658C88.2831 74.9293 87.5325 75.7274 86.5588 75.869C85.2007 76.0662 84.0122 75.0641 83.9306 73.744L83.3685 64.649C83.2923 63.4163 82.9361 62.2666 82.3746 61.249C82.7709 64.205 82.8019 69.7284 78.3771 72.9479C77.348 73.6966 76.6959 74.8725 76.7417 76.1444C76.8197 78.3047 77.5218 81.6505 80.5902 84.6854C82.6387 85.5359 84.2751 85.5236 84.2751 85.5236C93.2048 85.5236 92.8545 77.4939 92.3075 74.0997V74.0997Z" fill="#FFBF76"/>
<path d="M33.3062 26.4174L32.7283 24.3945C32.6302 24.0511 32.1645 23.991 31.9895 24.3023C31.544 25.095 30.9378 26.4627 30.7997 28.2131L33.3062 26.4174Z" fill="#819FEA"/>
</svg>
