<svg width="111" height="111" viewBox="0 0 111 111" fill="none" xmlns="http://www.w3.org/2000/svg">
<circle cx="55.5" cy="55.5" r="55.5" fill="#670635"/>
<path d="M22.3183 23.7321C24.5333 23.7321 26.3289 21.9365 26.3289 19.7215C26.3289 17.5065 24.5333 15.7109 22.3183 15.7109C20.1033 15.7109 18.3077 17.5065 18.3077 19.7215C18.3077 21.9365 20.1033 23.7321 22.3183 23.7321Z" fill="#FFBF76"/>
<path d="M21.4127 15.8174C19.6344 16.2283 18.3074 17.8184 18.3074 19.7215C18.3074 21.6246 19.6344 23.2146 21.4126 23.6256C22.4644 22.6537 23.1268 21.2666 23.1268 19.7215C23.1268 18.1764 22.4644 16.7895 21.4127 15.8174Z" fill="#FFD9BE"/>
<path d="M10.6455 66.362C17.8998 61.49 41.8941 45.3119 48.491 40.0655C48.8947 39.7437 49.3731 39.5289 49.8818 39.4412C50.3906 39.3534 50.9133 39.3955 51.4015 39.5636C56.1608 41.2012 70.0027 45.9358 76.2746 47.7726C77.0741 48.0069 77.4762 48.8949 77.1299 49.653L74.2584 55.9403L81.7751 50.8252C82.0143 50.662 82.288 50.5561 82.5749 50.5158C82.8618 50.4755 83.1541 50.5019 83.429 50.593C86.1266 51.4875 94.468 54.2223 100.747 55.9471C101.981 56.286 102.402 57.8185 101.51 58.7361C97.2434 63.1244 87.3258 73.305 83.2682 77.2914C83.0398 77.5159 82.7398 77.653 82.4206 77.6788L76.9401 78.1264L78.5502 79.59C79.132 80.1189 79.1509 81.027 78.5899 81.5777C76.0831 84.0395 69.654 90.3539 66.5849 93.3769C66.1184 93.8367 65.521 94.1406 64.8748 94.2471C64.2286 94.3535 63.5652 94.2572 62.976 93.9714L39.8134 82.7562C39.5302 82.6191 39.3029 82.3886 39.1698 82.1035C39.0366 81.8184 39.0058 81.4961 39.0825 81.1909L39.7605 78.4921L34.2975 81.2976C34.084 81.4079 33.8452 81.4598 33.6051 81.448C33.3651 81.4362 33.1325 81.3611 32.9309 81.2304C30.5151 79.6638 21.7078 74.0891 10.8293 68.8426C9.83072 68.3606 9.72515 66.9802 10.6455 66.362V66.362Z" fill="url(#paint0_linear_34_2363)"/>
<path d="M88.8653 61.1785C89.7301 60.3674 89.4313 58.9319 88.3144 58.5346C85.414 57.5026 81.2194 55.9707 76.6743 54.2965L74.2586 55.9404L75.2493 53.7712C65.9604 50.3443 55.6363 46.4866 51.9687 45.1146C51.547 44.956 51.0919 44.907 50.6461 44.9721C50.2003 45.0372 49.7783 45.2142 49.4195 45.4867C43.843 49.7162 27.8358 61.5741 22.4841 65.5355C21.7528 66.077 21.901 67.2118 22.7494 67.5408C27.6418 69.4378 35.4987 73.6036 35.4987 73.6036C42.612 77.4423 56.511 83.1405 61.2014 85.0347C61.6746 85.2263 62.193 85.2779 62.6947 85.1834C63.1964 85.0888 63.6604 84.852 64.0313 84.5011C69.5386 79.3089 83.7177 66.0066 88.8653 61.1785V61.1785Z" fill="#FFE7D0"/>
<path d="M66.6198 72.6746L64.4787 70.7533C64.4042 70.6865 64.3147 70.6387 64.2177 70.614C64.1208 70.5893 64.0193 70.5885 63.9219 70.6115L60.4303 71.4384L58.6171 69.4789C58.5442 69.4002 58.4521 69.3417 58.3498 69.3092C58.2475 69.2767 58.1385 69.2713 58.0335 69.2935L55.2543 69.8832C54.7975 69.98 54.6078 70.5278 54.9067 70.8864L56.2016 72.4399L52.5071 73.315C52.03 73.4279 51.8668 74.0236 52.2196 74.3644L54.2368 76.3108C54.3115 76.383 54.4031 76.4352 54.5033 76.4626C54.6035 76.49 54.7089 76.4918 54.81 76.4678L58.7771 75.5298L60.8293 77.992C60.9072 78.0855 61.011 78.154 61.1276 78.189C61.2442 78.2239 61.3686 78.2236 61.4851 78.1883L64.5929 77.2479C65.0312 77.1152 65.1792 76.5697 64.8681 76.2335L63.2404 74.4745L66.3486 73.7394C66.8355 73.6239 66.9923 73.0087 66.6198 72.6746V72.6746Z" fill="#C14C82"/>
<path d="M51.0059 52.5109C52.0516 52.797 53.1104 52.257 53.371 51.3047C53.6315 50.3525 52.9951 49.3486 51.9494 49.0625C50.9038 48.7764 49.8449 49.3164 49.5844 50.2687C49.3238 51.2209 49.9603 52.2248 51.0059 52.5109Z" fill="#C14C82"/>
<path fill-rule="evenodd" clip-rule="evenodd" d="M65.951 63.3893L64.0713 63.4104C64.0773 64.6564 63.9483 65.8994 63.6867 67.1177L65.528 67.4965C65.8168 66.1467 65.9586 64.7696 65.951 63.3893V63.3893Z" fill="#C14C82"/>
<path fill-rule="evenodd" clip-rule="evenodd" d="M63.7687 56.2661L62.2427 57.3638C62.9198 58.3241 63.437 59.3987 63.7194 60.5601L65.5404 60.0938C65.2065 58.7257 64.5872 57.4209 63.7687 56.2661Z" fill="#C14C82"/>
<path fill-rule="evenodd" clip-rule="evenodd" d="M57.7933 51.8565L57.1408 53.6194C58.2751 54.0462 59.3625 54.6227 60.3005 55.3626L61.4546 53.8786C60.3471 53.0084 59.0991 52.3476 57.7933 51.8565V51.8565Z" fill="#C14C82"/>
<path d="M22.5018 25.1564C23.251 24.2552 24.7543 22.999 27.2769 23.0798C27.806 23.0967 28.2905 23.3881 28.5806 23.8309L36.604 36.0865L29.2551 40.4586C29.2551 40.4586 24.8568 32.7616 22.2707 26.8846C22.0169 26.309 22.0995 25.6404 22.5018 25.1564V25.1564Z" fill="#B75798"/>
<path d="M22.1925 26.8277C22.9537 25.7515 24.8005 23.7296 27.9979 23.5917C28.4132 23.5737 28.6491 23.1131 28.4029 22.7782L28.1817 22.4773C27.6036 21.691 26.6103 21.3177 25.6634 21.5538C24.573 21.8255 23.0991 22.4213 21.7077 23.7243C20.853 24.5244 20.7023 25.8304 21.3399 26.8125L21.3423 26.8163C21.5406 27.122 21.9819 27.1253 22.1925 26.8277V26.8277Z" fill="#FFD9BE"/>
<path d="M29.908 40.0705L36.604 36.0869L28.5806 23.8313C28.2905 23.3883 27.806 23.0971 27.2769 23.0802C26.7573 23.0635 26.2914 23.1143 25.8561 23.1964C28.6427 26.3935 33.6801 33.5434 29.908 40.0705V40.0705Z" fill="#7F2467"/>
<path d="M25.5007 24.1419C26.2192 23.8423 27.0474 23.6326 27.9977 23.5917C28.413 23.5737 28.6489 23.1131 28.4027 22.7782L28.1815 22.4773C27.6034 21.691 26.6101 21.3177 25.6631 21.5538C25.3191 21.6409 24.9807 21.7487 24.6497 21.8766C25.1017 22.3431 25.5508 23.082 25.5007 24.1419V24.1419Z" fill="#FFBF76"/>
<path d="M28.503 43.1883C28.503 43.1883 35.4436 55.1783 39.0031 59.3934H49.1197C49.1197 59.3934 42.0855 42.158 38.8114 37.006L28.503 43.1883V43.1883Z" fill="url(#paint1_linear_34_2363)"/>
<path d="M49.1195 59.3934C49.1195 59.3934 42.0853 42.158 38.8112 37.006L28.503 43.1883C28.503 43.1883 28.6286 43.4048 28.8491 43.7815C31.596 44.6339 36.6041 46.2795 36.6041 46.2795L44.0224 59.3934H49.1195V59.3934Z" fill="url(#paint2_linear_34_2363)"/>
<path d="M20.3108 44.4458L43.8321 31.3638C44.5074 30.9882 45.3172 30.9013 46.0402 31.1738C46.7566 31.4437 47.5791 31.9497 47.9986 32.8937C47.9986 32.8937 48.0126 32.9229 48.0348 32.9772C49.0541 35.4679 46.4024 37.9618 43.9919 36.7653C43.764 36.6522 43.545 36.5149 43.3478 36.3478C42.9768 36.0337 42.4533 35.9781 42.0338 36.2237L40.2816 37.2495C40.082 37.3663 39.9228 37.5413 39.8254 37.751L37.0788 43.6633C36.9387 43.9649 36.7114 44.2176 36.4262 44.3888C36.1411 44.56 35.8112 44.6419 35.4792 44.6239L27.9338 44.2135C27.7321 44.2025 27.5311 44.2455 27.3517 44.3382L25.4052 45.3421C24.9862 45.5582 24.7422 46.0076 24.7979 46.4756C24.8511 46.9228 24.8698 47.5421 24.7382 48.2515C24.4898 49.5912 23.2098 50.4891 21.8657 50.2653C21.8378 50.2607 21.81 50.256 21.7822 50.251C19.5812 49.8579 18.236 47.4683 19.2777 45.4903C19.3295 45.3918 19.3866 45.2951 19.4496 45.2005C19.6637 44.8791 19.9736 44.6334 20.3108 44.4458V44.4458Z" fill="#FFD9BE"/>
<path d="M37.0787 43.6631L39.8254 37.7509C39.9228 37.5411 40.082 37.366 40.2817 37.2493L42.0339 36.2237C42.4534 35.9781 42.977 36.0337 43.3479 36.348C43.545 36.5149 43.7641 36.6522 43.9919 36.7653C46.4025 37.9618 49.0541 35.4679 48.0348 32.9772C48.0126 32.9231 47.9987 32.8937 47.9987 32.8937C47.5791 31.9497 46.7565 31.4437 46.0403 31.1738C45.3173 30.9013 44.5074 30.9882 43.8322 31.3638L32.686 37.5632C33.6616 38.6947 35.349 41.1025 35.8567 44.5967C36.3849 44.5034 36.8464 44.1634 37.0787 43.6631V43.6631Z" fill="#FFBF76"/>
<path d="M36.1806 59.5429C35.9562 59.5238 35.9483 59.1973 36.1717 59.1696C37.7635 58.9719 40.4364 58.7095 43.6161 58.6752C43.6161 58.6752 48.3391 58.5333 52.2648 59.1474C52.4826 59.1815 52.4699 59.5006 52.2505 59.5205C50.2661 59.7 46.4802 60.0101 43.6613 60.0448H43.6525C43.5443 60.0391 39.439 59.8225 36.1806 59.5429Z" fill="url(#paint3_linear_34_2363)"/>
<defs>
<linearGradient id="paint0_linear_34_2363" x1="49.2048" y1="42.0456" x2="70.1185" y2="105.121" gradientUnits="userSpaceOnUse">
<stop offset="0.0103" stop-color="#A84A78"/>
<stop offset="1" stop-color="#C36C9A"/>
</linearGradient>
<linearGradient id="paint1_linear_34_2363" x1="42.6848" y1="55.0539" x2="32.7313" y2="38.6001" gradientUnits="userSpaceOnUse">
<stop stop-color="white"/>
<stop offset="1" stop-color="#C7DAFF"/>
</linearGradient>
<linearGradient id="paint2_linear_34_2363" x1="28.5029" y1="48.1996" x2="49.1196" y2="48.1996" gradientUnits="userSpaceOnUse">
<stop stop-color="#819FEA"/>
<stop offset="1" stop-color="#A7C1FC"/>
</linearGradient>
<linearGradient id="paint3_linear_34_2363" x1="36.0082" y1="59.3528" x2="52.4218" y2="59.3528" gradientUnits="userSpaceOnUse">
<stop offset="0.0103" stop-color="#A84A78"/>
<stop offset="1" stop-color="#C36C9A"/>
</linearGradient>
</defs>
</svg>
