<svg width="111" height="111" viewBox="0 0 111 111" fill="none" xmlns="http://www.w3.org/2000/svg">
<circle cx="55.5" cy="55.5" r="55.5" fill="#344D38"/>
<path d="M89.331 76.2007C89.331 76.2007 89.415 84.9129 87.4041 92.5364L79.5881 75.0279C79.5883 75.0279 86.3989 74.3577 89.331 76.2007Z" fill="#E8897B"/>
<path d="M49.8738 95.7197C49.8738 95.7197 51.7017 100.888 57.8175 102.259C60.029 102.754 62.3584 102.568 64.3878 101.558C65.6821 100.914 67.0778 99.8756 68.0692 98.2058C68.3333 97.7609 68.9694 97.7636 69.2524 98.1967C69.897 99.1832 71.1052 100.599 73.1334 101.555C76.0559 102.931 79.4551 102.709 82.2839 101.148C84.4341 99.9619 86.7901 97.8344 87.6943 94.0589C88.1417 92.1907 88.096 90.2432 87.699 88.364C87.0061 85.0851 82.7618 78.5675 79.5883 75.0281C79.5883 75.0279 63.2776 78.7976 49.8738 95.7197Z" fill="url(#paint0_linear_32_2606)"/>
<path d="M87.699 88.3636C87.671 88.2317 87.6385 88.0865 87.6076 87.9446C84.4326 87.8362 76.478 86.6049 75.3984 77.1356C68.6955 79.736 58.2278 85.1725 49.8738 95.7194C49.8738 95.7194 51.7017 100.888 57.8175 102.259C60.029 102.754 62.3584 102.567 64.3878 101.558C65.6821 100.914 67.0778 99.8754 68.0692 98.2055C68.3333 97.7606 68.9694 97.7633 69.2524 98.1964C69.897 99.1829 71.1052 100.599 73.1334 101.555C76.056 102.931 79.4551 102.708 82.2837 101.148C84.4341 99.9617 86.7901 97.8342 87.6943 94.0586C88.1417 92.1905 88.0958 90.2429 87.699 88.3636Z" fill="#B56D95"/>
<path d="M87.699 88.3637C87.671 88.2318 87.6385 88.0866 87.6076 87.9447C85.9053 87.8866 82.8292 87.5038 80.1751 85.7031C80.7057 89.1791 81.2981 99.0641 71.1635 100.315C71.767 100.807 72.4285 101.224 73.1334 101.555C76.0561 102.931 79.4551 102.709 82.2837 101.148C84.4342 99.962 86.7901 97.8345 87.6943 94.059C88.1417 92.1906 88.0958 90.2431 87.699 88.3637Z" fill="#934A74"/>
<path d="M68.1947 89.2231C67.8036 88.473 67.1145 87.4322 65.9955 86.5484C65.7545 86.358 65.9239 85.9751 66.2249 86.0377L68.3696 86.4839C68.3696 86.4839 69.0663 85.9494 70.2115 85.306C70.4807 85.1549 70.7682 85.4777 70.5844 85.7258C69.9499 86.5828 69.14 87.8558 68.7954 89.1532C68.7189 89.4423 68.3331 89.4882 68.1947 89.2231Z" fill="#934A74"/>
<path d="M66.3037 89.9093C65.8858 89.3926 65.0664 89.6372 64.958 90.2928C63.6614 98.1487 57.0714 100.715 55.2211 101.343C56.0474 101.75 56.9189 102.057 57.8175 102.259C60.029 102.754 62.3584 102.567 64.3878 101.558C65.5348 100.987 66.76 100.105 67.7146 98.7493C68.1083 97.7471 68.2916 96.6563 68.2578 95.5551C68.1726 92.7871 67.1549 90.9616 66.3037 89.9093Z" fill="#934A74"/>
<path d="M56.3666 12.2473C56.3666 12.2473 53.386 5.58754 45.3342 6.5783C42.098 6.97665 39.0856 8.49899 36.7623 10.7868C34.1422 13.3669 31.1844 17.7642 31.4534 24.3357C31.4794 24.9729 31.5578 25.6033 31.6488 26.2346C31.9419 28.2688 32.6618 32.938 33.4362 35.5057C33.6712 36.2806 33.8164 37.08 33.869 37.8881L33.8778 38.0269C34.1571 42.401 31.7168 46.5852 27.6608 48.2475C26.1821 48.8536 24.3829 49.2415 22.2013 49.2373C20.5514 49.234 19.5838 51.0624 20.4824 52.4465C21.663 54.2647 23.961 56.347 28.4336 57.4654C31.4124 58.2099 34.5712 58.1277 37.4124 56.9633C39.0313 56.2999 40.6898 55.2769 41.7211 53.7089C41.7211 53.7089 42.069 56.3533 44.8229 56.6119C46.0983 56.7316 47.3463 56.2442 48.3362 55.4309C49.7408 54.277 51.7687 52.1018 52.0349 49.01C52.0347 49.0102 43.7837 30.606 56.3666 12.2473Z" fill="#FFE19F"/>
<path d="M42.2243 55.0376C42.6522 55.7389 43.4284 56.4812 44.8227 56.6121C46.0981 56.7318 47.3461 56.2443 48.336 55.4312C49.7406 54.2772 51.7685 52.102 52.0347 49.0102C52.0347 49.0102 51.3099 47.3832 50.6172 44.629C49.6412 48.9716 47.3441 53.407 42.2243 55.0376Z" fill="#D8A648"/>
<path d="M51.1 96.7489C55.5693 91.9838 72.3622 75.1872 86.0036 76.3419C87.0222 76.428 88.016 76.7717 88.8216 77.401C88.8759 77.4437 88.9301 77.4873 88.9834 77.5327C89.474 77.9486 90.2194 77.7559 90.4633 77.1608C91.405 74.8624 92.1215 70.2799 83.3354 69.5771C83.3354 69.5771 84.3453 64.6974 74.9073 65.5631C74.9073 65.5631 73.8907 58.202 61.6123 57.9471C61.6123 57.9471 46.448 57.6136 48.5992 66.0354C48.5992 66.0354 33.1848 69.2457 32.2848 80.3364C32.253 80.7295 32.2815 81.1225 32.347 81.5114C32.8029 84.2166 35.3428 94.2406 48.226 97.5927C49.2642 97.8625 50.3662 97.5315 51.1 96.7489Z" fill="#CFC46E"/>
<path d="M83.3354 69.577C83.3354 69.577 84.3453 64.6972 74.9073 65.563L74.9039 65.5428C74.9032 65.5385 74.9024 65.5344 74.9015 65.5302C74.8994 65.5175 74.8971 65.5036 74.8932 65.4833L74.8855 65.4462C74.8817 65.4277 74.8784 65.4109 74.8733 65.3885C74.8693 65.3699 74.8637 65.3473 74.8589 65.3267C74.8536 65.3038 74.8482 65.2809 74.8425 65.2581C74.8363 65.234 74.8284 65.2062 74.8212 65.1796C74.8139 65.1523 74.8071 65.1266 74.7984 65.0967C74.7897 65.066 74.7787 65.0318 74.7687 64.9984C74.7594 64.9683 74.7509 64.9393 74.7405 64.9073C74.7285 64.8708 74.7146 64.831 74.7011 64.7918C74.6893 64.7578 74.6783 64.725 74.6652 64.6893C74.6503 64.6482 74.6331 64.6049 74.6163 64.5618C74.6021 64.5246 74.5882 64.4879 74.5721 64.4491C74.5534 64.4029 74.5325 64.3548 74.5117 64.3068C74.4945 64.2672 74.4777 64.2282 74.4594 64.1871C74.4364 64.1361 74.4111 64.0837 74.3858 64.0308C74.3657 63.9895 74.3462 63.9486 74.3252 63.9063C74.2975 63.8515 74.2678 63.7955 74.2379 63.7391C74.2147 63.6956 74.1917 63.6526 74.1672 63.6084C74.1082 63.5034 74.0472 63.3996 73.9842 63.2971C73.9457 63.2349 73.9063 63.1732 73.866 63.1121C73.7935 63.0008 73.7182 62.8915 73.6401 62.784C73.6053 62.736 73.5701 62.6882 73.5344 62.6408C73.4469 62.5259 73.357 62.4129 73.2647 62.3019C73.1675 62.1854 73.0672 62.0715 72.9639 61.9603C72.9021 61.8935 72.8385 61.8267 72.7727 61.7597C72.7252 61.7116 72.6772 61.664 72.6286 61.617C72.5588 61.5486 72.4879 61.4814 72.4159 61.4154C72.3641 61.3679 72.3106 61.3208 72.2568 61.2737C72.1798 61.2058 72.1017 61.1392 72.0225 61.0738C71.9656 61.0271 71.9063 60.9804 71.8472 60.9336C71.7626 60.8668 71.677 60.8012 71.5904 60.7369C71.5275 60.6908 71.464 60.6455 71.4 60.6009C71.3067 60.5345 71.2122 60.4697 71.1167 60.4065C71.0501 60.3627 70.9806 60.32 70.9119 60.2767C70.8103 60.213 70.7081 60.1493 70.6016 60.0871C70.5299 60.0452 70.4548 60.0045 70.3809 59.9633C70.2698 59.9017 70.1588 59.84 70.0424 59.7801C69.9653 59.7403 69.884 59.7021 69.8045 59.6631C69.6832 59.6029 69.5611 59.5446 69.438 59.4883C69.3551 59.4511 69.2677 59.4152 69.1825 59.379C69.052 59.3232 68.9218 59.2674 68.7853 59.2139C68.6982 59.1798 68.6058 59.1477 68.516 59.1145C68.3735 59.062 68.2315 59.0091 68.0827 58.9589C67.9927 58.9288 67.8973 58.9011 67.805 58.8722C67.6482 58.8227 67.493 58.7729 67.3292 58.7268C67.2383 58.7009 67.1415 58.6783 67.0485 58.6538C66.8755 58.608 66.7038 58.5617 66.5231 58.5198C66.435 58.4993 66.3415 58.4819 66.2518 58.4624C66.0579 58.4203 65.8652 58.3779 65.6626 58.3402C65.5922 58.3273 65.5165 58.317 65.445 58.3045C64.5746 58.1539 63.6966 58.0517 62.8149 57.9982C62.7991 57.9975 62.7848 57.9955 62.769 57.9946C62.3839 57.9713 61.9985 57.9556 61.6129 57.9475C61.6129 57.9475 60.0004 57.9137 57.9049 58.1573C57.8725 58.2062 57.8402 58.2553 57.8082 58.3045C54.7987 62.9509 58.0003 69.2169 63.5324 69.4245C65.9227 69.5141 68.3267 68.8319 70.3083 68.018C70.8678 68.5589 71.5896 68.9066 72.3767 68.9709C74.4314 69.1385 77.8564 69.7759 77.4144 72.1714C77.286 72.8673 76.8421 73.4638 76.2644 73.8728C74.5652 75.0748 69.7975 78.6798 66.1407 83.6021C72.4021 79.2587 79.6089 75.7624 86.0957 76.3505C87.0513 76.4369 87.9791 76.7649 88.7455 77.3427C88.8258 77.4031 88.9058 77.4666 88.9842 77.5332C89.4748 77.9494 90.2202 77.7564 90.464 77.1613C91.405 74.8622 92.1215 70.2801 83.3354 69.577Z" fill="#A19145"/>
<path d="M59.0521 89.1311C49.0686 93.344 38.949 89.6788 34.5508 87.6022C36.6526 91.3428 40.6494 95.6212 48.226 97.5925C49.2641 97.8624 50.366 97.5314 51.1 96.7488C52.582 95.1686 55.4243 92.2639 59.0521 89.1311Z" fill="#A19145"/>
<path d="M63.1885 67.4519C59.6665 67.4519 56.8113 64.5968 56.8113 61.0746V50.1365H69.5658V61.0746C69.5656 64.5968 66.7106 67.4519 63.1885 67.4519Z" fill="url(#paint1_linear_32_2606)"/>
<path d="M57.1096 50.1363C59.0015 52.845 64.1295 59.8734 68.0377 65.2101C68.9887 64.0963 69.5658 62.6539 69.5658 61.0744V50.1363H57.1096Z" fill="#E8897B"/>
<path d="M57.5695 50.1774C57.5695 50.1774 62.9497 58.3234 72.1955 61.8139C73.1 62.1555 74.1203 61.8155 74.6496 61.0066C76.4171 58.3052 80.2164 51.6828 81.5221 42.9557C81.6357 42.1973 81.5013 41.4208 81.1661 40.7309L71.7454 21.3363L66.9386 21.619L58.173 30.9498L57.5695 50.1774Z" fill="url(#paint2_linear_32_2606)"/>
<path d="M69.0006 43.7729C68.7248 43.7729 68.4602 43.6633 68.2651 43.4682C68.07 43.2732 67.9604 43.0086 67.9604 42.7327V40.5494C67.9604 40.2735 68.07 40.009 68.2651 39.8139C68.4602 39.6188 68.7248 39.5092 69.0006 39.5092C69.1373 39.5092 69.2725 39.5361 69.3988 39.5883C69.525 39.6406 69.6397 39.7172 69.7363 39.8138C69.8329 39.9104 69.9095 40.0251 69.9618 40.1513C70.0141 40.2775 70.041 40.4128 70.041 40.5494V42.7327C70.041 43.0086 69.9313 43.2732 69.7362 43.4682C69.5411 43.6633 69.2765 43.7729 69.0006 43.7729Z" fill="#333345"/>
<path d="M73.0562 46.6921H75.8487C76.2887 46.6921 76.5822 47.1597 76.3756 47.5483C76.0505 48.1594 75.4637 48.8736 74.4965 48.8736C74.4965 48.8736 73.118 48.8516 72.5126 47.5181C72.3371 47.1327 72.6323 46.6921 73.0562 46.6921Z" fill="#E8897B"/>
<path d="M71.7454 21.3363L70.0706 21.4348L69.5656 24.2636C69.192 24.4909 66.8189 35.3962 75.6975 42.002C76.4938 42.5945 76.9976 43.5004 77.0424 44.492C77.1918 47.8128 76.8431 55.4506 71.3475 61.4762C71.634 61.5961 71.9246 61.712 72.2195 61.8228C73.116 62.1603 74.1236 61.8106 74.648 61.0091C76.415 58.3095 80.2162 51.6853 81.5223 42.9557C81.6358 42.1971 81.5014 41.4208 81.1662 40.7309L71.7454 21.3363Z" fill="#E8897B"/>
<path d="M64.11 28.1699L68.7023 24.2495C68.7023 24.2495 68.2601 36.7772 80.9353 42.9673C80.9353 42.9673 80.6404 46.9466 80.0509 49.01C80.0509 49.01 86.5358 49.1573 86.2413 39.8723C86.2413 39.8723 95.379 23.66 76.5139 13.1957C76.5139 13.1957 65.1652 0.52055 52.9324 14.3748L51.0579 17.1615C48.2642 21.3141 46.6936 26.1681 46.5411 31.1707C46.3007 39.0603 47.7156 49.8422 56.7348 52.4003C57.8617 52.7199 58.9753 51.8353 58.9753 50.6642V42.6727C58.9753 42.6727 65.4647 39.0385 63.2192 31.0396C62.9257 29.9952 63.2851 28.8743 64.11 28.1699Z" fill="#FFE19F"/>
<path d="M78.2593 14.2303C81.0429 17.7269 86.7231 26.6443 81.9929 36.6227C81.3455 37.9883 80.0457 38.9248 78.5396 39.0511C77.5792 39.1316 76.3548 39.085 74.9072 38.7469C76.4842 40.3017 78.4558 41.7565 80.9353 42.9674C80.9353 42.9674 80.6405 46.9468 80.051 49.0102C80.051 49.0102 86.5358 49.1575 86.2413 39.8723C86.2413 39.8723 94.7951 24.6938 78.2593 14.2303Z" fill="#EDC063"/>
<path d="M50.69 13.5224C51.5744 12.7128 52.939 12.7823 53.749 13.6663C55.4044 15.4725 58.7511 18.1621 64.5255 19.0798C64.9254 19.1434 65.204 19.512 65.1395 19.9119C65.1133 20.0776 65.0303 20.229 64.9048 20.3403C64.7793 20.4516 64.619 20.5159 64.4514 20.5222C62.46 20.5997 55.8784 20.5444 50.8839 16.872C49.7804 16.0604 49.68 14.4473 50.69 13.5224Z" fill="#A19145"/>
<path d="M83.0344 14.7876C82.3978 14.3028 81.5391 14.4493 81.1083 15.1078C80.2284 16.4534 78.3594 18.5213 74.7845 19.564C74.537 19.6362 74.3949 19.9063 74.4734 20.173C74.5406 20.4012 74.7461 20.553 74.9672 20.537C76.237 20.4447 80.4047 19.9283 83.2261 17.0736C83.8496 16.4432 83.7616 15.3418 83.0344 14.7876Z" fill="#A19145"/>
<path d="M43.7283 30.111C43.2116 29.7656 42.5396 30.2589 42.7113 30.8563C43.4309 33.3621 44.7764 38.1384 45.5449 41.4494C45.5449 41.4494 46.671 47.0804 51.7559 48.3691C52.9595 48.6742 54.1773 47.8889 54.3804 46.6639C54.5378 45.7154 54.5996 44.4705 54.3256 43.0345C54.1074 41.8918 53.6318 40.8194 53.0141 39.8334C51.6538 37.6611 48.551 33.3351 43.7283 30.111Z" fill="url(#paint3_linear_32_2606)"/>
<path d="M49.854 39.9731C50.6619 40.9204 51.5846 42.4091 51.7393 44.3785C51.7704 44.7749 51.3245 45.0413 50.9918 44.8237C50.293 44.3665 49.3857 43.4914 49.5064 42.0725C49.5064 42.0725 49.5282 41.2482 49.2633 40.2812C49.1679 39.9327 49.6195 39.6979 49.854 39.9731Z" fill="#E8897B"/>
<path d="M51.9618 70.1156C53.084 71.7725 55.4021 74.0068 59.9587 74.7435C60.698 74.863 60.7116 75.9101 59.9736 76.0366C58.564 76.278 56.7346 76.3007 54.638 75.6465C53.0732 75.1586 51.7555 74.0491 51.1768 72.5154C50.934 71.8699 50.7931 71.1906 50.7594 70.5018C50.7256 69.8389 51.5897 69.5657 51.9618 70.1156Z" fill="#A19145"/>
<defs>
<linearGradient id="paint0_linear_32_2606" x1="66.2997" y1="84.085" x2="72.8188" y2="104.799" gradientUnits="userSpaceOnUse">
<stop offset="0.0051" stop-color="#FFC3B0"/>
<stop offset="1" stop-color="#E8897B"/>
</linearGradient>
<linearGradient id="paint1_linear_32_2606" x1="63.1885" y1="60.7136" x2="63.1885" y2="41.5491" gradientUnits="userSpaceOnUse">
<stop offset="0.0051" stop-color="#FFC3B0"/>
<stop offset="1" stop-color="#E8897B"/>
</linearGradient>
<linearGradient id="paint2_linear_32_2606" x1="69.5657" y1="58.1957" x2="69.5657" y2="11.3326" gradientUnits="userSpaceOnUse">
<stop offset="0.0051" stop-color="#FFC3B0"/>
<stop offset="1" stop-color="#E8897B"/>
</linearGradient>
<linearGradient id="paint3_linear_32_2606" x1="52.8785" y1="46.3671" x2="40.4287" y2="28.7416" gradientUnits="userSpaceOnUse">
<stop offset="0.0051" stop-color="#FFC3B0"/>
<stop offset="1" stop-color="#E8897B"/>
</linearGradient>
</defs>
</svg>
