<svg width="111" height="111" viewBox="0 0 111 111" fill="none" xmlns="http://www.w3.org/2000/svg">
<circle cx="55.5" cy="55.5" r="55.5" fill="#371E4B"/>
<path d="M70.6974 41.2212L70.3452 57.0809C70.3452 57.0809 69.7366 70.2632 57.5635 67.6281C57.5635 67.6281 54.1318 58.0165 58.2389 39.2461L70.6974 41.2212Z" fill="#AD3A4C"/>
<path d="M57.8531 58.2172C57.8531 58.2172 55.9263 66.728 60.9846 69.0443C61.6087 69.3303 62.2919 69.4521 62.9775 69.4851C65.1002 69.5877 71.8703 70.5875 70.5212 79.2366C70.5212 79.2366 67.3768 84.9609 52.7621 86.3685C52.7621 86.3685 40.024 86.4622 34.2062 77.5477C34.2062 77.5477 36.083 69.1025 41.6192 68.7268C41.6192 68.7268 44.6058 68.6786 46.8341 67.7193C48.0598 67.1917 48.8993 66.0351 49.069 64.7117L50.4401 54.0162L57.8531 58.2172Z" fill="url(#paint0_linear_32_2607)"/>
<path d="M50.4399 54.0162L49.6516 60.165L59.1492 67.6281C56.4642 64.3603 57.8531 58.2172 57.8531 58.2172L50.4399 54.0162Z" fill="#E8897B"/>
<path d="M70.521 79.2366C71.8384 70.7891 65.4135 69.639 63.1357 69.4943C65.0283 70.7988 68.4852 74.2303 68.0092 81.6889C69.9169 80.3356 70.521 79.2366 70.521 79.2366Z" fill="#E8897B"/>
<path d="M52.7695 81.9064C53.4246 82.4058 54.8758 83.7935 55.0139 86.3683H57.4277C57.4277 86.3683 56.711 83.0489 58.4344 81.1726C58.5046 81.0964 58.4245 80.9793 58.3291 81.0197C57.6881 81.2906 56.5147 82.28 55.9023 83.3296C55.9023 83.3296 54.9469 82.0236 52.8453 81.7338C52.7475 81.7205 52.6909 81.8466 52.7695 81.9064Z" fill="#E8897B"/>
<path d="M54.0068 71.9924C53.3879 71.9924 48.2548 71.5264 46.5287 67.4098C46.3855 67.0682 46.5667 66.6743 46.9209 66.567C47.221 66.4761 47.5455 66.6231 47.6655 66.9123C49.1623 70.5214 53.86 70.7497 54.0525 70.7514C57.1679 70.751 58.7635 68.5523 59.3133 67.5858C59.4591 67.3294 59.7681 67.2182 60.0463 67.315C60.4105 67.4415 60.5734 67.8661 60.3811 68.2003C59.6689 69.4365 57.7497 71.9918 54.0739 71.9918C54.0719 71.992 54.0485 71.9924 54.0068 71.9924Z" fill="#333345"/>
<path d="M43.1052 35.7399L42.0186 41.9586C42.0186 41.9586 34.2733 41.7655 25.4412 44.376C25.4412 44.376 8.94543 49.6188 10.0534 32.444L43.1052 35.7399Z" fill="#6D4D7A"/>
<path d="M67.9441 41.0126L67.5104 55.7671C67.5063 55.9085 67.4944 56.0496 67.4747 56.1897C67.3865 56.8055 67.0694 58.3825 66.0439 59.5184C65.1884 60.4657 63.8513 60.8141 62.5997 60.5636C60.0719 60.0572 53.7221 58.4544 50.9445 54.7221V37.9416L67.9441 41.0126Z" fill="url(#paint1_linear_32_2607)"/>
<path d="M66.0437 59.5184C67.0692 58.3825 67.3863 56.8055 67.4745 56.1895C67.4946 56.0484 67.5058 55.9099 67.5102 55.7671L67.9439 41.0126L50.9444 37.9416V42.6197C53.6269 43.3751 61.1355 45.6689 64.718 48.5913C65.2159 48.9976 65.4859 49.6193 65.4859 50.2617V56.6788C65.4859 56.6788 65.5313 58.6808 64.5869 60.4479C65.1383 60.2666 65.6445 59.9605 66.0437 59.5184Z" fill="#E8897B"/>
<path d="M60.7297 49.292H63.184C63.5706 49.292 63.8283 49.703 63.6466 50.0444C63.361 50.5815 62.8453 51.2093 61.9951 51.2093C61.9951 51.2093 60.7839 51.1899 60.2517 50.0182C60.0975 49.6791 60.3574 49.292 60.7297 49.292Z" fill="#E8897B"/>
<path d="M64.7838 44.1518C64.5976 44.1518 64.419 44.0778 64.2873 43.9462C64.1556 43.8145 64.0816 43.6359 64.0815 43.4497V41.9233C64.0815 41.8311 64.0997 41.7398 64.135 41.6546C64.1703 41.5694 64.222 41.492 64.2872 41.4268C64.3524 41.3616 64.4299 41.3099 64.5151 41.2746C64.6003 41.2393 64.6916 41.2212 64.7838 41.2212C64.876 41.2212 64.9673 41.2393 65.0525 41.2746C65.1377 41.3099 65.2151 41.3616 65.2803 41.4268C65.3455 41.492 65.3972 41.5694 65.4324 41.6546C65.4677 41.7398 65.4858 41.8311 65.4857 41.9233V43.4497C65.4858 43.5419 65.4677 43.6332 65.4324 43.7184C65.3972 43.8036 65.3455 43.881 65.2803 43.9462C65.2151 44.0114 65.1377 44.0631 65.0525 44.0984C64.9673 44.1337 64.876 44.1518 64.7838 44.1518Z" fill="#333345"/>
<path d="M61.1261 39.7682C61.1261 39.7682 60.2375 46.4985 52.7619 49.6937L51.8777 62.4299C51.5259 67.4991 47.4888 71.6549 42.4116 71.8616C42.2068 71.87 42.0019 71.8732 41.7969 71.8713C40.1869 71.8569 38.6895 71.0372 37.7234 69.7492L37.7187 69.743C37.2963 69.1802 36.99 68.5391 36.8175 67.857C36.6451 67.1749 36.6098 66.4653 36.7139 65.7694C37.0812 63.3071 37.9233 59.1478 39.7856 54.7936C40.3631 53.4433 40.6062 51.9783 40.5457 50.5107C40.3826 46.5444 40.2097 38.7583 41.2069 36.1653L61.1261 39.7682Z" fill="#E25A6C"/>
<path d="M40.5156 40.8284C42.8924 41.2808 48.3009 42.3969 51.8699 43.8046C52.609 44.0961 52.8903 44.9845 52.4637 45.6545C52.0823 46.2537 51.5496 46.9859 50.8693 47.6753C50.2077 48.3456 49.8525 49.2584 49.8982 50.1991C50.1304 54.9645 50.1228 69.0249 42.2286 71.8645C42.2295 71.8693 42.2284 71.8624 42.2291 71.8674C47.3919 71.7541 51.5217 67.5596 51.8779 62.4299L52.7621 49.6937C60.2377 46.4985 61.1262 39.7683 61.1262 39.7683L41.2076 36.1651C40.8315 37.1424 40.6222 38.8581 40.5156 40.8284Z" fill="#AD3A4C"/>
<path d="M10.0532 32.4439C10.0532 32.4439 43.056 37.5911 73.1825 43.0412C73.1825 43.0412 84.0652 44.7371 90.8089 44.3056C91.3263 44.2726 91.8306 44.1567 92.3161 43.9758C94.8921 43.0161 102.679 39.4228 102.552 31.0816C102.552 31.0816 89.8287 28.0368 69.3878 29.8008C69.3878 29.8008 71.1839 18.3268 52.7623 7.51093C51.9913 7.05822 51.083 6.88904 50.2083 7.07339C47.6911 7.60387 41.8113 9.51696 32.1381 16.4156C32.1381 16.4156 30.9749 15.4463 29.4645 14.5786C28.6715 14.123 27.6916 14.164 26.9206 14.6562C25.5023 15.5612 23.1323 17.3455 21.0241 20.22C20.4961 20.94 21.2236 21.9125 22.0592 21.5983C23.1997 21.1694 24.5316 20.7141 25.6455 20.4578C26.4461 20.2737 27.2821 20.4444 27.9656 20.9001C29.0315 21.6112 30.7458 22.8502 32.162 24.3182C32.8658 25.0476 33.9562 25.2361 34.8523 24.7624C36.7979 23.7338 40.074 22.1246 41.8912 21.9148L44.6926 25.6226C44.6926 25.6226 42.5136 28.5554 41.061 31.5645C41.0612 31.5645 27.5011 33.2196 10.0532 32.4439Z" fill="#936FA0"/>
<path d="M36.7556 23.7991C38.5327 22.9382 40.5861 22.0652 41.8914 21.9146L40.2933 19.3271C40.0539 18.9396 39.4796 18.9742 39.2938 19.3901C38.821 20.4471 37.9582 22.1796 36.7556 23.7991Z" fill="#6D4D7A"/>
<path d="M61.4083 28.2045C61.4826 29.0796 61.1583 29.9414 60.5136 30.5381C60.064 30.9559 59.6034 31.3618 59.1324 31.7553C58.6527 32.1536 58.9171 32.9314 59.5405 32.9437C63.3542 33.019 71.685 33.2692 75.6134 34.055C75.6134 34.055 80.2919 35.0852 81.8243 38.3251C82.2243 39.1705 82.165 40.1578 81.6466 40.9364C81.0799 41.7879 80.0459 42.9219 78.276 43.7065C82.0055 44.1259 87.0495 44.5465 90.8089 44.3059C91.3261 44.2729 91.8304 44.157 92.3159 43.976C94.8919 43.0164 102.678 39.4231 102.552 31.0819C102.552 31.0819 89.8285 28.0371 69.3876 29.8011C69.3876 29.8011 71.1837 18.3271 52.7621 7.51117C52.7621 7.51079 60.2618 14.6793 61.4083 28.2045Z" fill="#6D4D7A"/>
<path d="M58.2389 72.8763C58.2389 70.945 56.6732 69.3794 54.7419 69.3794C52.8104 69.3794 51.2448 70.945 51.2448 72.8763C51.2448 74.4296 52.2585 75.7449 53.6595 76.2007L53.8027 77.6218C53.8125 77.7194 53.8415 77.814 53.8879 77.9004C53.9343 77.9868 53.9973 78.0631 54.0733 78.1252C54.1492 78.1872 54.2366 78.2336 54.3305 78.2618C54.4244 78.29 54.523 78.2995 54.6205 78.2896L56.0496 78.1458C56.1472 78.136 56.2419 78.107 56.3283 78.0606C56.4146 78.0142 56.491 77.9512 56.5531 77.8752C56.6151 77.7992 56.6615 77.7118 56.6898 77.6179C56.718 77.524 56.7275 77.4254 56.7176 77.3278L56.5691 75.8536C57.5696 75.2385 58.2389 74.1368 58.2389 72.8763Z" fill="white"/>
<path d="M53.6518 74.0442C54.1595 74.0442 54.571 73.6327 54.571 73.125C54.571 72.6173 54.1595 72.2057 53.6518 72.2057C53.1441 72.2057 52.7325 72.6173 52.7325 73.125C52.7325 73.6327 53.1441 74.0442 53.6518 74.0442Z" fill="#333345"/>
<path d="M56.3178 73.7061C56.8256 73.7061 57.2373 73.2945 57.2373 72.7867C57.2373 72.2788 56.8256 71.8672 56.3178 71.8672C55.81 71.8672 55.3983 72.2788 55.3983 72.7867C55.3983 73.2945 55.81 73.7061 56.3178 73.7061Z" fill="#333345"/>
<path d="M32.6877 77.0633C33.0494 76.3369 33.9991 76.1561 34.5974 76.7039C37.5992 79.4528 46.1803 86.2225 56.3032 84.4915C56.3032 84.4915 65.2206 83.0683 70.5588 78.0078C70.6661 77.9053 70.795 77.8281 70.936 77.782C71.0771 77.7358 71.2267 77.7219 71.3738 77.7411C71.5209 77.7604 71.6619 77.8124 71.7863 77.8933C71.9107 77.9742 72.0154 78.082 72.0927 78.2086C72.6061 79.0407 73.4126 80.186 74.4428 81.1284C74.8828 81.5307 75.0791 82.1342 74.9306 82.7113C74.7914 83.2534 74.5535 83.9411 74.1541 84.595C73.7471 85.2615 73.5389 86.0264 73.6295 86.8019C73.97 89.7147 74.1096 96.7421 67.9437 98.6613C67.9437 98.6613 63.501 99.5726 60.0877 97.5806C59.6267 97.311 59.094 97.1898 58.5618 97.2334C57.778 97.299 57.0723 97.7147 56.6245 98.3613C55.5406 99.9262 52.7228 102.669 46.5922 101.852C46.5922 101.852 39.1658 101.169 38.6421 93.4527C38.5717 92.4166 38.2954 91.4076 37.7793 90.5067C36.8585 88.8994 35.0888 86.5565 32.0442 85.0358C30.8232 84.426 30.2774 82.9841 30.7252 81.6946C31.1466 80.4826 31.7764 78.8939 32.6877 77.0633Z" fill="#936FA0"/>
<path d="M54.1009 89.6684C53.9544 89.5173 53.779 89.3973 53.5852 89.3155C53.3913 89.2337 53.183 89.1918 52.9726 89.1923C52.243 89.1923 51.6158 89.6981 51.4428 90.4067C49.33 99.0624 43.8921 99.5356 40.9912 99.1136C43.343 101.55 46.5926 101.851 46.5926 101.851C52.7234 102.669 55.5411 99.9259 56.6249 98.361C57.2437 93.5477 55.1214 90.7219 54.1009 89.6684Z" fill="#6D4D7A"/>
<path d="M61.263 98.1391C64.4388 99.3753 67.9441 98.6611 67.9441 98.6611C74.1099 96.7419 73.9702 89.7144 73.6299 86.8017C73.5391 86.0261 73.7473 85.2612 74.1545 84.5948C74.5537 83.941 74.7916 83.2533 74.931 82.7111C75.0795 82.1339 74.883 81.5304 74.4432 81.1282C73.4129 80.1858 72.6065 79.0404 72.0931 78.2084C72.0158 78.0817 71.9111 77.9739 71.7867 77.893C71.6623 77.8121 71.5213 77.7602 71.3742 77.7409C71.227 77.7216 71.0774 77.7356 70.9364 77.7817C70.7954 77.8279 70.6664 77.905 70.5591 78.0075C69.7548 78.77 68.8685 79.4484 67.9445 80.0532L67.9443 80.0543C69.1166 92.8791 63.6388 96.9771 61.263 98.1391Z" fill="#6D4D7A"/>
<defs>
<linearGradient id="paint0_linear_32_2607" x1="52.4517" y1="82.4606" x2="52.4517" y2="47.1674" gradientUnits="userSpaceOnUse">
<stop offset="0.0051" stop-color="#FFC3B0"/>
<stop offset="1" stop-color="#E8897B"/>
</linearGradient>
<linearGradient id="paint1_linear_32_2607" x1="59.4442" y1="58.4877" x2="59.4442" y2="33.5123" gradientUnits="userSpaceOnUse">
<stop offset="0.0051" stop-color="#FFC3B0"/>
<stop offset="1" stop-color="#E8897B"/>
</linearGradient>
</defs>
</svg>
