<svg width="110" height="111" viewBox="0 0 110 111" fill="none" xmlns="http://www.w3.org/2000/svg">
<g clip-path="url(#clip0_32_2603)">
<circle cx="54.5" cy="55.5" r="55.5" fill="#71104A"/>
<path d="M81.7771 55.6586C81.7771 55.6586 77.897 53.6798 73.4134 66.3028L81.1218 74.3543C81.1218 74.3543 86.5779 62.1209 81.7771 55.6586Z" fill="#375DAB"/>
<path d="M50.9017 40.9319V49.3375C50.9027 51.2707 50.3201 53.1584 49.2315 54.7492C47.2164 57.694 43.7069 62.5825 40.564 65.754C40.564 65.754 52.4392 74.3598 65.8258 78.8264L74.4625 65.8629C74.4625 65.8629 67.4057 63.3572 67.8572 56.3851L50.9017 40.9319Z" fill="url(#paint0_linear_32_2603)"/>
<path d="M67.857 56.3851L50.9015 40.9319V49.3375C50.9015 49.4499 50.8928 49.5616 50.8888 49.6738L71.0568 70.9746L74.4623 65.8631C74.4623 65.8629 67.4055 63.3572 67.857 56.3851Z" fill="#E8897B"/>
<path d="M40.5636 65.754C40.5636 65.754 52.439 74.3598 65.8256 78.8264L74.4623 65.863C74.4623 65.863 72.1916 65.0549 70.3086 63.0841C69.9039 64.0266 69.3175 64.7856 68.6919 65.3813C67.3149 66.6919 65.4807 67.3897 63.5937 67.5384C53.9441 68.2986 46.9158 61.9721 45.2272 60.2874C43.7302 62.2347 42.1035 64.2003 40.5636 65.754Z" fill="#375DAB"/>
<path d="M30.7465 74.3105L43.6297 62.3036C43.6297 62.3036 53.7763 71.4303 63.9108 75.1884C64.5526 75.4263 65.2748 75.2269 65.7235 74.7063C67.1477 73.0534 70.1662 69.2566 71.2236 65.6453L74.4623 65.8632C74.4623 65.8632 77.789 69.6503 80.727 72.0988C81.4879 72.7329 82.0452 73.575 82.2945 74.5384C83.5078 79.2245 85.4988 93.3245 69.8257 104.462C69.3233 104.819 68.7193 105.001 68.1048 105C64.674 104.995 52.9548 104.108 43.3328 92.9888C43.3328 92.9888 38.2883 87.3744 32.4327 84.7493C30.3592 83.8196 28.9559 81.8215 28.7514 79.5411C28.6647 78.5732 28.7995 77.5983 29.1454 76.6913C29.4913 75.7844 30.0391 74.9699 30.7465 74.3105Z" fill="white"/>
<path d="M80.7272 72.0986C77.789 69.6501 74.4625 65.863 74.4625 65.863L71.2294 65.6454L71.2211 65.653C70.1949 69.1488 67.3386 72.8104 65.8669 74.5382C67.4103 97.1143 50.9431 95.6188 44.3809 94.1466C53.7889 104.167 64.798 104.995 68.1052 105C68.7198 105.001 69.3237 104.819 69.8261 104.462C85.4994 93.3243 83.5083 79.2243 82.2949 74.5382C82.0454 73.5748 81.4879 72.7325 80.7272 72.0986Z" fill="#CDE0FF"/>
<path d="M82.2947 74.5382C82.0452 73.5748 81.4878 72.7327 80.7272 72.0986C77.789 69.6501 74.4625 65.863 74.4625 65.863L71.2238 65.6451C70.1664 69.2564 67.1479 73.0535 65.7237 74.7061C65.5176 74.944 65.2496 75.1187 64.95 75.2105C69.1276 87.8513 68.8206 100.98 68.6058 104.957C69.0427 104.885 69.4616 104.72 69.8263 104.461C85.4992 93.3243 83.508 79.2243 82.2947 74.5382Z" fill="#AFC8FF"/>
<path d="M38.7055 61.2091L42.6797 58.9333C43.7033 58.3474 44.9953 58.568 45.7583 59.472C47.0133 60.9589 48.8497 63.4216 50.0563 66.3156C50.7879 68.0709 50.1467 70.1023 48.5263 71.0776C47.1542 71.9036 45.4179 71.7629 44.1896 70.732C42.5534 69.3584 40.2153 67.2943 38.1381 65.0825C37.0367 63.9097 37.3135 62.0066 38.7055 61.2091Z" fill="url(#paint1_linear_32_2603)"/>
<path d="M70.5561 63.0405L70.7305 69.9021C70.7447 70.4649 70.9597 71.0037 71.3361 71.4194C71.7124 71.8351 72.2248 72.0998 72.7791 72.1647C73.8155 72.2862 74.8082 71.6982 75.1949 70.7204C75.5972 69.7032 76.0539 68.3279 76.2513 66.9308C76.3451 66.269 76.0975 65.6056 75.6109 65.1516C74.8324 64.4259 73.476 63.2836 71.7349 62.3066C71.1986 62.0056 70.5406 62.4214 70.5561 63.0405Z" fill="url(#paint2_linear_32_2603)"/>
<path d="M28.6446 52.4326C32.8915 54.8054 41.8806 61.5416 42.1891 76.162C42.2014 76.7345 42.0679 77.3007 41.8154 77.8134C40.6287 80.2247 36.4146 86.857 25.5919 87.9022C25.1242 87.9479 24.6523 87.8832 24.2136 87.7133C23.7749 87.5433 23.3814 87.2727 23.0641 86.9229C21.5991 85.3027 18.5166 82.2613 14.6351 80.4971C13.5321 79.9954 12.8779 78.8241 13.019 77.6116C13.4767 73.6829 15.4739 65.5152 24.0935 61.6185C25.122 61.1536 25.8941 60.2653 26.1879 59.1672C26.5344 57.8735 26.8639 55.967 26.7308 53.6446C26.6726 52.621 27.7558 51.9359 28.6446 52.4326Z" fill="#EEF5FF"/>
<path d="M41.8156 77.8134C42.0679 77.3006 42.2014 76.7345 42.1893 76.1619C41.8879 61.8751 33.3001 55.1193 28.9455 52.6042C33.1651 58.1928 44.5218 76.3829 21.8646 85.6738C22.2756 86.0792 22.6757 86.4957 23.0645 86.9229C23.3818 87.2727 23.7753 87.5433 24.214 87.7133C24.6527 87.8832 25.1245 87.9479 25.5923 87.9022C36.415 86.8569 40.6291 80.2249 41.8156 77.8134Z" fill="#C7DAFF"/>
<path d="M20.2843 68.4637C20.6566 67.6394 21.3409 66.6945 22.5982 66.0058C22.6527 65.9759 22.7106 65.9487 22.769 65.9269C23.0246 65.8311 23.7966 65.5709 24.6569 65.5678C25.5804 65.5642 26.1753 66.5614 25.7204 67.3724C25.1325 68.4203 23.946 69.7349 21.6121 70.1397C20.6615 70.3041 19.8841 69.3494 20.2843 68.4637Z" fill="white"/>
<path d="M58.9303 12.9346C58.9303 8.00002 54.9663 4 50.0762 4C40.9949 4 33.6332 11.4287 33.6332 20.5926V47.396C33.6332 49.3481 35.2013 50.9307 37.1358 50.9307C39.0703 50.9307 40.6384 49.3481 40.6384 47.396V43.1253C40.6384 42.6956 40.8076 42.2836 41.1086 41.9798C41.4097 41.6759 41.818 41.5053 42.2438 41.5053C42.6696 41.5053 43.0779 41.6759 43.379 41.9798C43.6801 42.2836 43.8492 42.6956 43.8492 43.1253V44.6473C43.8492 45.84 44.8075 46.8071 45.9899 46.8071C47.172 46.8071 48.1305 45.8402 48.1305 44.6473V33.5526C48.1305 33.5526 47.8385 18.7271 58.9303 12.9346Z" fill="url(#paint3_linear_32_2603)"/>
<path d="M50.0763 4.00001C47.7513 3.99818 45.4527 4.49596 43.3332 5.46024C47.2895 6.31069 53.246 9.07738 51.2158 18.0797L52.5513 18.6183C54.0852 16.4067 56.1499 14.3866 58.9305 12.9346C58.9303 8.00003 54.9663 4.00001 50.0763 4.00001Z" fill="#A03774"/>
<path d="M48.689 39.1896C48.689 39.1896 45.2229 37.6085 44.8644 31.5028C44.6128 27.2222 45.9093 22.973 48.4175 19.5117C49.4291 18.1156 50.7407 16.6404 52.4109 15.3198C58.7503 10.3072 67.6436 10.1103 74.2435 14.768C77.1436 16.8145 79.7582 19.973 80.5667 24.8309C80.6764 25.4901 80.7264 26.158 80.7536 26.826C80.8423 29.0014 80.8289 33.5989 79.2975 35.5205L48.689 39.1896Z" fill="#EEF5FF"/>
<path d="M79.2975 35.5205C80.8289 33.5989 80.8423 29.0014 80.7537 26.826C80.7264 26.158 80.6763 25.4901 80.5667 24.8309C79.7581 19.973 77.1436 16.8147 74.2435 14.768C70.4641 12.1007 65.934 11.0331 61.5609 11.5423C66.0933 13.4675 73.3279 19.7284 54.9312 38.4412L79.2975 35.5205Z" fill="#C7DAFF"/>
<path d="M47.7161 27.4011C47.9459 25.9907 48.749 22.4646 51.2572 20.0887C51.5666 19.7961 51.9653 19.6182 52.388 19.5843C52.8107 19.5503 53.2323 19.6623 53.5836 19.9019C53.9917 20.1802 54.2738 20.6105 54.3682 21.0983C54.4625 21.5862 54.3613 22.0919 54.0868 22.5046C53.0227 24.1073 51.2463 26.5947 49.424 28.3181C49.2467 28.4854 49.0163 28.5836 48.7739 28.5951C48.5314 28.6066 48.2929 28.5306 48.1009 28.3808C47.9547 28.2681 47.8418 28.1173 47.774 27.9448C47.7062 27.7722 47.6862 27.5843 47.7161 27.4011Z" fill="white"/>
<path d="M50.9017 40.932L52.4338 47.3514C52.7114 48.5154 53.382 49.5474 54.3383 50.2558C56.6434 51.9623 61.4899 55.1931 67.9364 57.5522C68.6978 57.8307 69.5059 57.9596 70.3161 57.9596H71.9813C72.5492 57.9602 73.105 57.7947 73.5815 57.483C74.0581 57.1714 74.4348 56.727 74.6662 56.2037C75.6125 54.0675 77.0917 50.0653 77.8066 44.6545L52.9268 39.1896L50.9017 40.932Z" fill="url(#paint4_linear_32_2603)"/>
<path d="M55.8304 39.8273L55.2672 41.5657C55.2672 41.5657 62.4841 46.2396 69.3248 49.1227C70.6714 49.6902 71.5804 50.9901 71.5977 52.4627C71.6131 53.7887 71.5581 55.6302 71.3081 57.9598H71.9811C72.549 57.9604 73.1049 57.7949 73.5814 57.4832C74.058 57.1716 74.4348 56.7272 74.6662 56.2039C75.6123 54.0678 77.0915 50.0653 77.8064 44.6545L55.8304 39.8273Z" fill="#E8897B"/>
<path d="M51.3251 37.0971C53.3392 35.0982 60.6317 28.3643 73.0537 22.3447C73.0537 22.3447 79.8201 29.1725 83.2451 35.9161V39.2038C83.2451 39.2038 80.0189 44.5656 73.5867 48.6961C73.5867 48.6961 62.8382 46.598 51.5682 39.3496C51.2574 39.1486 51.0344 38.8354 50.9449 38.474C50.8837 38.231 50.8866 37.976 50.9533 37.7345C51.02 37.4929 51.1482 37.2731 51.3251 37.0971Z" fill="#EEF5FF"/>
<path d="M61.8357 44.7997C68.5873 47.7176 73.5867 48.6964 73.5867 48.6964C80.0189 44.5658 83.2451 39.204 83.2451 39.204V35.9164C80.452 30.4171 75.4393 24.8644 73.6839 23.0017C73.81 27.8978 73.013 40.6871 61.8357 44.7997Z" fill="#C7DAFF"/>
<path d="M83.2453 39.2038V35.9161C79.8202 29.1725 73.0539 22.3447 73.0539 22.3447C73.0539 22.3447 74.8717 32.5628 73.5869 48.6961C80.0191 44.5656 83.2453 39.2038 83.2453 39.2038Z" fill="#819FEA"/>
<path d="M67.4026 31.2214C67.4026 31.2214 68.5354 30.2204 70.4468 29.0079C70.4468 29.0079 71.1125 37.1086 70.5678 42.4218L67.5236 40.7323L67.4026 31.2214Z" fill="#375DAB"/>
<path d="M62.978 34.2531L63.3326 38.4459L60.542 36.8319C60.542 36.8321 62.2365 35.1409 62.978 34.2531Z" fill="#375DAB"/>
<path d="M76.3461 30.2469C76.3461 30.2469 76.746 35.9613 76.4124 42.1916L78.3467 39.9506L78.4069 32.5526L76.3461 30.2469Z" fill="#375DAB"/>
<path d="M81.1218 36.0787C80.8565 35.7673 80.5341 35.4016 80.2447 35.1093V38.3442L81.1218 37.3419V36.0787Z" fill="#375DAB"/>
<path d="M50.9015 41.9327C52.8098 41.9327 54.3569 40.3716 54.3569 38.4459C54.3569 36.5202 52.8098 34.959 50.9015 34.959C48.9931 34.959 47.446 36.5202 47.446 38.4459C47.446 40.3716 48.9931 41.9327 50.9015 41.9327Z" fill="#C7DAFF"/>
<path d="M81.7771 55.6586C81.7771 55.6586 85.1079 61.9534 80.7651 72.1715C80.283 73.3054 80.437 74.6121 81.2119 75.5671C82.2965 76.904 83.9538 78.8127 85.6686 80.2857C87.2272 81.624 89.3842 81.9842 91.2923 81.2369C92.113 80.9158 93.0251 80.4765 93.9269 79.8799C94.7774 79.3177 95.0755 78.2009 94.6291 77.2791C93.5297 75.0091 90.949 70.5549 85.9529 66.0512C85.6716 65.7976 85.4967 65.4444 85.4797 65.0643C85.3958 63.1969 84.8853 57.3695 81.7771 55.6586Z" fill="#819FEA"/>
<path d="M40.2053 89.9651C43.683 85.7514 50.1667 78.2581 57.1695 71.9914C55.7613 71.195 54.4015 70.3545 53.1228 69.5136C50.9603 74.381 46.2439 80.9449 35.9608 86.715C37.5691 87.7708 39.0223 88.9292 40.2053 89.9651Z" fill="#CDE0FF"/>
<path d="M61.0135 73.9756C60.3435 73.6646 59.6805 73.3385 59.0249 72.9977C55.5927 77.0318 47.7376 86.1974 42.3479 91.9661C42.9735 92.5906 43.333 92.9886 43.333 92.9886C43.4256 93.0956 43.5192 93.1952 43.6121 93.3C47.2903 88.7254 54.806 79.6584 61.0135 73.9756Z" fill="#CDE0FF"/>
</g>
<defs>
<linearGradient id="paint0_linear_32_2603" x1="57.5198" y1="65.3015" x2="57.923" y2="34.4068" gradientUnits="userSpaceOnUse">
<stop offset="0.0051" stop-color="#FFC3B0"/>
<stop offset="1" stop-color="#E8897B"/>
</linearGradient>
<linearGradient id="paint1_linear_32_2603" x1="43.7253" y1="64.8652" x2="33.6001" y2="49.0489" gradientUnits="userSpaceOnUse">
<stop stop-color="#CC5697"/>
<stop offset="1" stop-color="#8E3979"/>
</linearGradient>
<linearGradient id="paint2_linear_32_2603" x1="72.1512" y1="69.3874" x2="75.7684" y2="57.4386" gradientUnits="userSpaceOnUse">
<stop stop-color="#CC5697"/>
<stop offset="1" stop-color="#8E3979"/>
</linearGradient>
<linearGradient id="paint3_linear_32_2603" x1="46.2816" y1="27.3299" x2="46.2816" y2="85.4841" gradientUnits="userSpaceOnUse">
<stop stop-color="#CC5697"/>
<stop offset="1" stop-color="#8E3979"/>
</linearGradient>
<linearGradient id="paint4_linear_32_2603" x1="69.7426" y1="53.4565" x2="51.4321" y2="25.5096" gradientUnits="userSpaceOnUse">
<stop offset="0.0051" stop-color="#FFC3B0"/>
<stop offset="1" stop-color="#E8897B"/>
</linearGradient>
<clipPath id="clip0_32_2603">
<rect width="110" height="111" fill="white"/>
</clipPath>
</defs>
</svg>
