<svg width="111" height="111" viewBox="0 0 111 111" fill="none" xmlns="http://www.w3.org/2000/svg">
<circle cx="55.5" cy="55.5" r="55.5" fill="#203F65"/>
<path d="M30.7523 67.3303C30.7523 67.3303 26.8971 69.0929 27.0048 72.4972C27.0377 73.5393 27.4926 74.5202 28.1793 75.3047C29.0156 76.26 30.5235 77.9939 31.9538 79.6946C33.7154 81.7889 35.1224 84.1649 36.0516 86.7391C38.1598 92.5779 44.8383 104.997 63.5116 105C64.9308 104.999 66.3342 104.702 67.6315 104.127C72.9703 101.76 85.9833 93.6947 83.4792 71.9913C83.4792 71.9913 78.2009 71.6654 73.3749 83.5412C72.4668 85.7756 70.426 87.3722 68.0231 87.5796C62.8873 88.0226 53.8651 86.4884 45.6024 73.4541C43.817 70.6381 41.2272 68.3869 38.0905 67.2555C35.7165 66.3995 32.9961 66.0224 30.7523 67.3303V67.3303Z" fill="#59E1FF"/>
<path d="M83.479 71.9915C83.479 71.9915 78.2003 71.6656 73.3745 83.5422C72.4667 85.7762 70.4264 87.372 68.0241 87.5796C64.0445 87.9232 57.7304 87.0754 51.2448 80.6129L49.7248 81.3968C49.7248 81.3968 56.4686 91.7615 65.3364 95.3515C65.8776 95.5706 66.4755 95.6052 67.0449 95.4743C68.3578 95.1725 70.8698 94.3888 73.3135 92.4858C74.2651 91.7447 75.6344 92.6294 75.3752 93.8074C74.9375 95.7969 74.2233 98.3153 73.0737 100.882C78.7877 96.5095 85.3183 87.9321 83.479 71.9915V71.9915Z" fill="#30A7EA"/>
<path d="M50.7978 56.6009C50.7978 56.6009 43.8624 52.5158 38.8275 60.686C38.8275 60.686 29.4533 58.7941 26.3337 66.9566C26.0489 67.7014 26.3955 68.5421 27.1017 68.9121C27.3369 69.0358 27.5992 69.0988 27.8648 69.0955C28.1305 69.0922 28.3911 69.0226 28.6231 68.8931C30.119 68.0585 33.1273 65.9113 36.2624 68.3813C36.2624 68.3813 41.4884 71.9212 45.6563 77.3386C47.2943 79.468 49.033 81.517 50.9863 83.3612C54.5298 86.7068 59.9921 91.0644 65.5287 92.384C65.9515 92.4846 66.3908 92.4497 66.7992 92.3016C68.8024 91.5742 74.7323 88.6262 78.0543 78.476C78.5388 76.996 79.3547 75.6261 80.4951 74.5655C81.2978 73.8189 82.3114 73.1564 83.4913 72.9641C84.1934 72.8499 84.6608 72.1743 84.4699 71.4889C84.0985 70.1562 83.1645 68.3027 80.8189 67.7163C80.8189 67.7163 80.5527 62.8711 76.0305 61.0663L50.7978 56.6009V56.6009Z" fill="url(#paint0_linear_32_2602)"/>
<path d="M78.124 78.2607C78.4013 77.395 78.7903 76.5656 79.3428 75.8439C80.2039 74.719 81.6435 73.2652 83.4911 72.9641C84.1934 72.8497 84.6606 72.1743 84.4696 71.4889C84.0983 70.1562 83.1645 68.3027 80.8187 67.7163C80.8187 67.7163 80.5523 62.8711 76.0303 61.0663L71.8848 60.3325L67.9932 67.9064C71.5006 68.5538 72.222 71.0173 72.3088 72.6098C72.3543 73.4531 72.7916 74.2108 73.4858 74.6917C77.3827 77.3917 75.7958 82.9863 75.0608 84.9958C76.1879 83.1992 77.2503 80.988 78.124 78.2607V78.2607Z" fill="#A03774"/>
<path d="M58.0593 67.3303C58.0593 67.3303 64.0999 71.3278 64.3778 77.3609H66.1161C66.1161 77.3609 65.5255 71.6156 69.7562 68.093V67.3301H58.0593V67.3303Z" fill="#A03774"/>
<path d="M45.6155 28.2769C45.6155 28.2769 40.8186 30.0585 40.8186 35.3925V45.1098C40.8186 45.1098 40.653 47.6737 38.751 47.8391C38.751 47.8391 37.8513 47.9676 37.0935 47.4636C36.3245 46.9523 35.305 47.4476 35.2169 48.3669C35.1297 49.2775 35.2208 50.3715 35.7165 51.5697C36.158 52.6368 36.8816 53.5686 37.7673 54.3097C39.888 56.0844 44.7239 58.7475 52.3861 55.3653V28.2769H45.6155V28.2769Z" fill="#E6E6F8"/>
<path d="M76.1677 47.2671H75.2527V39.7141H76.1677C78.2534 39.7141 79.9443 41.405 79.9443 43.4906C79.9443 45.5762 78.2534 47.2671 76.1677 47.2671V47.2671Z" fill="#C66760"/>
<path d="M51.5482 28.2769H76.0307V58.7271H51.5482V28.2769Z" fill="url(#paint1_linear_32_2602)"/>
<path d="M56.2017 31.6288H68.07C69.7374 31.6288 71.0886 32.9805 71.0886 34.6476V58.7271H76.0307V28.2769H56.2017V31.6288Z" fill="#E8897B"/>
<path d="M63.2686 37.611C63.8812 37.611 64.3778 37.1144 64.3778 36.5018C64.3778 35.8892 63.8812 35.3925 63.2686 35.3925C62.6559 35.3925 62.1593 35.8892 62.1593 36.5018C62.1593 37.1144 62.6559 37.611 63.2686 37.611Z" fill="#333345"/>
<path d="M72.8398 37.611C73.4524 37.611 73.949 37.1144 73.949 36.5018C73.949 35.8892 73.4524 35.3925 72.8398 35.3925C72.2272 35.3925 71.7305 35.8892 71.7305 36.5018C71.7305 37.1144 72.2272 37.611 72.8398 37.611Z" fill="#333345"/>
<path d="M48.0966 45.2752C48.4274 56.3527 38.2285 54.6688 38.2192 54.6672C40.534 56.4068 45.2247 58.5263 52.3863 55.3651V45.2752H48.0966V45.2752Z" fill="#B3B3C5"/>
<path d="M57.1913 28.2769C57.1913 28.2769 58.4069 35.0738 53.2845 37.611V49.7784C53.2845 51.5067 54.0154 53.1911 55.3798 54.2521C56.1831 54.8767 57.2482 55.4183 58.6266 55.6122C59.2243 55.6964 59.7784 55.2918 59.9315 54.7081C60.4284 52.8113 62.1435 48.743 67.8064 47.8084C69.7001 47.4959 71.661 47.6224 73.4442 48.3318C75.6889 49.2248 78.3316 51.2235 78.4419 55.6883C78.4419 62.9766 72.5338 68.8847 65.2457 68.8847H62.9214C55.6333 68.8847 49.7252 62.9766 49.7252 55.6883V28.2769H57.1913Z" fill="#E6E6F8"/>
<path d="M48.81 47.2671H49.725V39.7141H48.81C46.7244 39.7141 45.0334 41.405 45.0334 43.4906C45.0334 45.5762 46.7244 47.2671 48.81 47.2671V47.2671Z" fill="#E8897B"/>
<path d="M71.5404 44.4754H69.3149C68.9645 44.4754 68.6284 44.3362 68.3806 44.0884C68.1328 43.8406 67.9936 43.5045 67.9936 43.154C67.9935 42.9805 68.0277 42.8086 68.0941 42.6483C68.1605 42.488 68.2578 42.3423 68.3805 42.2196C68.5032 42.0969 68.6489 41.9996 68.8092 41.9332C68.9696 41.8668 69.1414 41.8326 69.3149 41.8326H71.5404C71.8908 41.8326 72.2269 41.9719 72.4747 42.2197C72.7225 42.4675 72.8617 42.8036 72.8617 43.154C72.8617 43.5045 72.7225 43.8406 72.4747 44.0884C72.2269 44.3362 71.8908 44.4754 71.5404 44.4754V44.4754Z" fill="#E8897B"/>
<path d="M78.4417 55.6883C78.3312 51.2233 75.6886 49.2249 73.444 48.3319C72.6855 48.03 71.8939 47.8397 71.0896 47.7377C71.1146 47.7892 76.5969 59.2161 71.4558 67.3303C75.612 65.1088 78.4417 60.7304 78.4417 55.6883Z" fill="#B3B3C5"/>
<path d="M54.1048 19.6401C52.1407 18.6895 51.3723 16.2903 52.2005 14.2716C52.3674 13.8645 52.5777 13.4766 52.8279 13.1147C53.0989 12.7233 53.1062 12.2094 52.8291 11.8224C52.0429 10.7244 51.3232 9.46862 50.8306 8.55207C50.5455 8.0213 49.7842 8.0213 49.499 8.55207C49.0062 9.46862 48.2867 10.7244 47.5003 11.8224C47.2232 12.2094 47.2308 12.7233 47.5017 13.1147C47.7519 13.4766 47.9623 13.8645 48.1291 14.2716C48.9571 16.2903 48.1889 18.6895 46.2249 19.6401C45.5175 19.9825 44.0501 20.2826 42.8615 20.2826L43.4112 24.4144H56.9186L57.567 19.9865C56.3779 19.9865 54.8122 19.9823 54.1048 19.6401V19.6401Z" fill="#AD6D2A"/>
<path d="M41.7916 31.6288H52.3863V28.2769H45.6155C45.6155 28.2769 43.1928 29.1873 41.7916 31.6288Z" fill="#B3B3C5"/>
<path d="M57.207 31.6288C57.452 29.778 57.1913 28.2769 57.1913 28.2769H49.725V31.6288H57.207Z" fill="#B3B3C5"/>
<path d="M73.4491 19.6401C71.4849 18.6895 70.7167 16.2903 71.5449 14.2716C71.7116 13.8645 71.9219 13.4766 72.1721 13.1147C72.4431 12.7233 72.4506 12.2094 72.1735 11.8224C71.3871 10.7244 70.6676 9.46862 70.1748 8.55207C69.8898 8.0213 69.1286 8.0213 68.8432 8.55207C68.3506 9.46862 67.6309 10.7244 66.8445 11.8224C66.5674 12.2094 66.5751 12.7233 66.8461 13.1147C67.0962 13.4766 67.3065 13.8645 67.4733 14.2716C68.3015 16.2903 67.5331 18.6895 65.5691 19.6401C64.8616 19.9825 63.3945 20.2826 62.2058 20.2826L62.7554 24.4144H76.2628L76.9114 19.9865C75.7223 19.9865 74.1564 19.9823 73.4491 19.6401V19.6401Z" fill="#AD6D2A"/>
<path d="M75.4296 11.6042C75.2339 11.8757 75.1274 12.2013 75.1248 12.536C75.1222 12.8707 75.2236 13.198 75.415 13.4725C75.7914 14.017 76.1049 14.6023 76.3495 15.2173C77.4796 18.0567 76.2842 21.5536 73.5185 22.854C72.515 23.326 71.2223 23.6381 69.5585 23.6381C67.8559 23.6381 66.5421 23.3111 65.5289 22.8207C62.7162 21.4592 61.6159 18.0235 62.8018 15.1322C63.0408 14.5491 63.342 13.9936 63.7001 13.4751C64.0922 12.9085 64.0907 12.1682 63.6898 11.6077C62.4067 9.81284 61.2487 7.72761 60.5563 6.40684C60.2717 5.86439 59.5007 5.86439 59.2161 6.40684C58.5244 7.72622 57.3678 9.80888 56.086 11.6026C55.8902 11.875 55.7837 12.2015 55.7813 12.537C55.779 12.8726 55.8808 13.2005 56.0727 13.4757C56.4469 14.0175 56.7589 14.5998 57.0028 15.2114C58.155 18.1007 57.0366 21.474 54.2345 22.8249C53.2227 23.3129 51.9114 23.6379 50.2139 23.6379C48.5638 23.6379 47.2791 23.3307 46.2789 22.8655C43.496 21.5705 42.2879 18.0686 43.4229 15.2167C43.6675 14.6018 43.9811 14.0166 44.3575 13.4723C44.5488 13.1977 44.6501 12.8705 44.6476 12.5359C44.645 12.2012 44.5386 11.8756 44.343 11.604C43.4487 10.3529 42.6155 8.96124 41.9586 7.78603C41.5783 7.10574 40.5419 7.38142 40.5419 8.16054V27.7337C40.5419 28.7966 41.4036 29.6583 42.4665 29.6583H77.3059C78.3688 29.6583 79.2303 28.7966 79.2303 27.7337V8.16094C79.2303 7.38162 78.1942 7.10614 77.8137 7.78623C77.1566 8.96164 76.3234 10.3533 75.4296 11.6042V11.6042Z" fill="#FFCA95"/>
<path d="M77.3059 29.6587C78.3688 29.6587 79.2303 28.797 79.2303 27.734V8.1609C79.2303 7.38158 78.1939 7.1063 77.8137 7.78639C77.1568 8.9618 76.3236 10.3533 75.4296 11.6043C75.2339 11.8759 75.1274 12.2015 75.1248 12.5362C75.1221 12.8709 75.2235 13.1981 75.4149 13.4727C75.7914 14.0171 76.1049 14.6025 76.3495 15.2175C77.4796 18.0569 76.2842 21.5538 73.5184 22.8542C72.5149 23.3261 71.2223 23.6382 69.5585 23.6382C67.8559 23.6382 66.5421 23.3113 65.5289 22.8209C62.7162 21.4593 61.6158 18.0236 62.8017 15.1323C63.0407 14.5493 63.3419 13.9937 63.7001 13.4753C64.0922 12.9087 64.0906 12.1684 63.6898 11.6077C62.4066 9.8128 61.2487 7.72757 60.5561 6.407C60.4929 6.28386 60.3969 6.18064 60.2786 6.1088C60.1604 6.03695 60.0245 5.9993 59.8861 6.00001V26.7963C59.8861 26.7963 59.7875 29.6585 63.1432 29.6585H77.3059V29.6587Z" fill="#FBB04D"/>
<path d="M65.1435 85.7386C67.4521 85.7386 69.3236 83.6182 69.3236 81.0027C69.3236 78.3871 67.4521 76.2668 65.1435 76.2668C62.8348 76.2668 60.9633 78.3871 60.9633 81.0027C60.9633 83.6182 62.8348 85.7386 65.1435 85.7386Z" fill="#FBB04D"/>
<path d="M63.5283 81.8026C64.2497 81.9292 64.9508 81.369 65.0942 80.5514C65.2377 79.7337 64.7691 78.9683 64.0477 78.8418C63.3263 78.7152 62.6252 79.2754 62.4818 80.093C62.3383 80.9107 62.8069 81.6761 63.5283 81.8026Z" fill="#FFCA95"/>
<defs>
<linearGradient id="paint0_linear_32_2602" x1="54.6157" y1="75.5278" x2="68.2886" y2="-30.8055" gradientUnits="userSpaceOnUse">
<stop stop-color="#CC5697"/>
<stop offset="1" stop-color="#8E3979"/>
</linearGradient>
<linearGradient id="paint1_linear_32_2602" x1="63.7892" y1="52.2932" x2="63.7892" y2="8.63498" gradientUnits="userSpaceOnUse">
<stop offset="0.0051" stop-color="#FFC3B0"/>
<stop offset="1" stop-color="#E8897B"/>
</linearGradient>
</defs>
</svg>
