<svg width="111" height="111" viewBox="0 0 111 111" fill="none" xmlns="http://www.w3.org/2000/svg">
<circle cx="55.5" cy="55.5" r="55.5" fill="#431919"/>
<path d="M33.2942 50.9442C33.2942 50.9442 33.6719 32.063 34.2383 26.2099C34.8046 20.3568 39.3363 5.62966 58.9726 6.00712C58.9726 6.00712 78.0001 6.55617 79.3151 29.9859C79.3571 30.7329 79.3567 31.4793 79.3432 32.2272C79.2765 35.9097 79.0847 47.8401 79.2858 53.7897C79.3165 54.7041 79.4806 55.6082 79.8099 56.462C80.1011 57.2179 80.4378 58.3461 80.4938 59.6243C80.5761 61.5007 80.9515 63.3486 81.7663 65.0407C82.9645 67.5291 84.845 70.9334 87.1957 73.5364C88.686 75.1861 89.4163 77.4314 88.9622 79.6076C88.703 80.8495 88.1151 82.1103 86.9168 83.0421C86.9168 83.0421 93.1475 90.4058 85.4063 97.7695C85.4063 97.7695 82.3855 100.79 78.1017 102.438C76.938 102.885 75.6897 103.063 74.4454 102.981C67.1309 102.501 38.202 98.9611 24.2709 72.889C23.2877 71.0489 22.8108 68.9528 23.0696 66.8826C23.3814 64.3868 24.7036 61.5584 28.952 60.9515C28.952 60.9515 27.7645 56.9377 30.9177 55.1095C32.3873 54.2565 33.2508 52.643 33.2942 50.9442Z" fill="url(#paint0_linear_32_2610)"/>
<path d="M85.4061 97.7694C93.1473 90.4057 86.9165 83.042 86.9165 83.042C88.1153 82.1097 88.7032 80.8488 88.9622 79.6066C89.4155 77.4332 88.6907 75.1899 87.2017 73.5427C84.8264 70.9154 82.9306 67.4683 81.733 64.9724C80.9333 63.3052 80.5727 61.4813 80.4938 59.6343C80.4395 58.3618 80.1067 57.2371 79.8162 56.4795C79.4809 55.6045 79.3149 54.6772 79.2836 53.7408C79.0852 47.7753 79.2763 35.8996 79.3428 32.2271C79.3563 31.4791 79.3567 30.7327 79.3147 29.9857C78 6.55598 58.9724 6.00713 58.9724 6.00713C58.1582 5.99148 57.3792 6.0109 56.6161 6.04538C58.5626 7.09948 61.0208 8.96874 62.1375 12.0207C62.7135 13.5945 61.9623 15.3752 60.4333 16.0612C56.3221 17.9053 48.2748 24.0573 49.6743 43.7674C49.6743 43.7674 47.3893 60.4769 62.5276 71.4496C64.1601 72.6329 65.2788 74.4128 65.6608 76.3924C65.9703 77.9961 66.1413 79.9942 65.7865 82.0638C65.4355 84.109 63.2546 85.3137 61.3525 84.4836C60.469 84.0979 59.5094 83.6041 58.6163 82.9891C58.1874 82.6938 57.6144 82.6292 57.1794 82.9156C56.5222 83.3479 56.4267 84.2334 56.9306 84.7858C57.9294 85.8809 59.7858 87.7775 61.959 89.3296C61.959 89.3296 57.3748 96.3297 44.7538 93.9773C57.1448 101.211 69.9232 102.684 74.4446 102.98C75.6889 103.062 76.9372 102.884 78.1009 102.437C82.3851 100.79 85.4061 97.7694 85.4061 97.7694Z" fill="#8E545C"/>
<path d="M66.1816 20.2189C69.2492 21.6804 72.0299 24.4676 72.8323 29.6896C72.9205 30.2633 72.9592 30.8434 72.9885 31.4232L74.1557 54.4746C74.3115 57.5522 74.8999 60.5821 75.7361 63.5481C76.4007 65.9054 76.5372 68.8848 73.5248 69.8983C73.2423 69.9934 72.9439 70.0342 72.6461 70.0431C69.8971 70.1273 56.1089 69.4949 46.4997 49.4007C45.764 47.8623 45.252 46.2262 44.9599 44.5462C44.2417 40.4108 43.5387 32.5066 46.9909 26.3058C50.7508 19.5526 59.204 16.8943 66.1816 20.2189Z" fill="#602E3A"/>
<path d="M63.4834 19.2439C57.1463 17.6311 50.2766 20.4042 46.991 26.3056C43.7946 32.0468 44.161 39.2424 44.803 43.5607C46.6528 45.1532 48.8502 45.4246 50.3119 45.382C51.2546 45.3547 52.0654 46.0373 52.2134 46.9685L52.6065 49.4401C52.6585 49.7674 52.8256 50.0655 53.0777 50.2806C53.3298 50.4958 53.6504 50.614 53.9818 50.6139H55.5923C55.9393 50.6139 56.2738 50.4843 56.5303 50.2506C56.7868 50.0169 56.9469 49.6959 56.9791 49.3504L57.2456 46.4855C57.2755 46.1662 57.423 45.8695 57.6595 45.653C57.896 45.4365 58.2045 45.3156 58.5251 45.3138C58.8458 45.3121 59.1556 45.4296 59.3944 45.6435C59.6333 45.8574 59.784 46.1525 59.8174 46.4714L60.1188 49.3656C60.1545 49.7082 60.3158 50.0253 60.5716 50.2559C60.8275 50.4865 61.1596 50.6141 61.504 50.6141H62.8656C63.235 50.6141 63.5893 50.4674 63.8504 50.2062C64.1116 49.945 64.2584 49.5908 64.2584 49.2214V46.7953C64.2583 46.4626 64.3867 46.1427 64.6166 45.9022C64.8465 45.6617 65.1604 45.5192 65.4928 45.5043L65.6705 45.4963C65.8449 45.4886 66.0191 45.5162 66.1825 45.5775C66.3459 45.6389 66.4952 45.7328 66.6214 45.8534C66.7475 45.9741 66.8479 46.119 66.9165 46.2796C66.9851 46.4401 67.0205 46.6129 67.0204 46.7874V48.7282C67.0204 49.0975 67.1672 49.4517 67.4283 49.7129C67.6895 49.974 68.0437 50.1207 68.413 50.1207C68.7823 50.1207 69.1365 49.974 69.3976 49.7129C69.6588 49.4517 69.8055 49.0975 69.8055 48.7282V30.7658C69.8059 24.8291 66.2564 21.1863 63.4834 19.2439Z" fill="url(#paint1_linear_32_2610)"/>
<path d="M57.5924 29.7645C55.9431 29.7525 52.7167 30.1422 51.3856 33.186C50.9117 34.2693 50.8003 35.4979 51.1437 36.6293L51.1681 36.7078C51.9159 39.0478 54.7996 39.9008 56.7501 38.407C56.8286 38.347 56.9084 38.2848 56.989 38.2212C59.0152 36.619 60.02 33.9631 59.3616 31.4652C59.3055 31.2509 59.2367 31.0403 59.1553 30.8343C59.0305 30.521 58.8152 30.2519 58.5368 30.0614C58.2585 29.8708 57.9297 29.7675 57.5924 29.7645Z" fill="#602E3A"/>
<path d="M64.7908 30.6667C65.9701 30.9048 68.076 31.6823 68.2085 34.2031C68.2349 34.704 68.097 35.2009 67.8638 35.6447L67.8396 35.6907C67.1069 37.0603 65.216 37.2608 64.174 36.1086L64.0924 36.0174C62.9848 34.7684 62.6352 32.9542 63.364 31.4523C63.3931 31.3921 63.424 31.3326 63.4567 31.274C63.7199 30.8006 64.2598 30.5595 64.7908 30.6667Z" fill="#602E3A"/>
<path d="M62.8389 38.1552C63.1204 38.5945 63.4178 39.1114 63.6558 39.6498C63.891 40.1818 63.4864 40.7792 62.9046 40.7792H61.7261C61.1852 40.7792 60.795 40.2636 60.9436 39.7435C61.0782 39.2723 61.2221 38.8038 61.3752 38.3383C61.5914 37.6818 62.4658 37.5734 62.8389 38.1552Z" fill="#602E3A"/>
<path d="M38.8281 66.548C41.3797 68.8997 45.2736 72.2827 48.5161 74.2202C49.3709 74.731 49.5183 75.9047 48.7963 76.5907C48.233 77.1257 47.356 77.1419 46.7777 76.6234C44.91 74.9489 40.9026 71.1718 38.0807 67.2052C37.7341 66.7178 38.3884 66.1428 38.8281 66.548Z" fill="#8E545C"/>
<path d="M69.2251 26.7975C68.1064 23.143 65.575 20.7087 63.4832 19.2436C57.9769 17.8424 52.0715 19.7554 48.4616 24.1518C52.687 22.3469 61.766 19.798 69.2251 26.7975Z" fill="#E5B4F7"/>
<defs>
<linearGradient id="paint0_linear_32_2610" x1="56.1434" y1="22.4381" x2="56.1434" y2="146.399" gradientUnits="userSpaceOnUse">
<stop offset="0.0103" stop-color="#B7858F"/>
<stop offset="1" stop-color="#8E545C"/>
</linearGradient>
<linearGradient id="paint1_linear_32_2610" x1="57.088" y1="46.0232" x2="57.088" y2="-3.26561" gradientUnits="userSpaceOnUse">
<stop offset="0.0051" stop-color="#FFE1FF"/>
<stop offset="1" stop-color="#E5B4F7"/>
</linearGradient>
</defs>
</svg>
